<svg xmlns="http://www.w3.org/2000/svg" xmlns:xlink="http://www.w3.org/1999/xlink" width="500" zoomAndPan="magnify" viewBox="0 0 375 374.999991" height="500" preserveAspectRatio="xMidYMid meet" version="1.0"><defs><clipPath id="beaff36156"><path d="M 89.234375 63.085938 L 342.847656 63.085938 L 342.847656 375 L 89.234375 375 Z M 89.234375 63.085938 " clip-rule="nonzero"/></clipPath><clipPath id="d67cac7459"><path d="M 282.085938 88.601562 L 356.511719 88.601562 L 356.511719 242.578125 L 282.085938 242.578125 Z M 282.085938 88.601562 " clip-rule="nonzero"/></clipPath><clipPath id="bfa93dbf90"><path d="M 18.515625 155 L 129 155 L 129 239 L 18.515625 239 Z M 18.515625 155 " clip-rule="nonzero"/></clipPath></defs><path fill="#00a8c9" d="M 259.820312 298.332031 C 247.269531 278.769531 234.867188 240.039062 244.171875 187.445312 C 249.15625 159.226562 263.890625 122.164062 275.613281 95.574219 C 278.019531 90.113281 280.296875 85.089844 282.339844 80.683594 C 266.761719 62.132812 250.222656 46.574219 233.820312 34.652344 C 198.335938 8.828125 163.480469 0.015625 140.195312 14.867188 C 115.5625 30.582031 109.539062 69.199219 120.402344 115.644531 C 117.363281 81.859375 125.195312 54.953125 144.75 42.476562 C 166.011719 28.914062 196.929688 35.089844 229.167969 55.941406 C 219.59375 96.558594 215.34375 137.765625 182.019531 160.351562 C 154.523438 178.988281 169.023438 190.960938 192.578125 220.648438 C 206.695312 238.441406 209.664062 252.492188 219.382812 275.574219 C 234.980469 312.59375 268.640625 312.089844 259.820312 298.332031 " fill-opacity="1" fill-rule="nonzero"/><g clip-path="url(#beaff36156)"><path fill="#e4c70a" d="M 299.285156 337.589844 C 246.820312 360.125 166.957031 291.613281 120.902344 184.5625 C 102.757812 142.386719 92.574219 100.527344 90.097656 63.894531 C 86.945312 107.117188 97.035156 162.132812 120.9375 217.691406 C 166.992188 324.742188 246.859375 393.253906 299.320312 370.722656 C 331.113281 357.066406 345.542969 313.105469 341.730469 256.765625 C 338.8125 296.820312 324.519531 326.753906 299.285156 337.589844 " fill-opacity="1" fill-rule="nonzero"/></g><g clip-path="url(#d67cac7459)"><path fill="#00a8c9" d="M 284.359375 99.410156 C 283.792969 100.699219 283.214844 102.015625 282.632812 103.355469 C 293.757812 116.050781 304.460938 130.234375 314.359375 145.722656 C 335.246094 178.414062 349.449219 211.917969 356.515625 242.125 C 353.238281 205.664062 337.320312 161.171875 309.808594 118.113281 C 303.210938 107.792969 296.261719 98.042969 289.066406 88.9375 C 287.492188 92.382812 285.917969 95.871094 284.359375 99.410156 " fill-opacity="1" fill-rule="nonzero"/></g><g clip-path="url(#bfa93dbf90)"><path fill="#e4c70a" d="M 128.953125 234.949219 C 128.953125 234.949219 108.839844 200.832031 56.191406 192.28125 C 56.191406 192.28125 97.871094 204.554688 120.742188 237.023438 C 108.453125 239.167969 83.621094 239.964844 54.894531 221.238281 C 23.429688 200.734375 18.785156 155.195312 18.785156 155.195312 C 42.484375 174.675781 119.007812 161.238281 128.953125 234.949219 " fill-opacity="1" fill-rule="nonzero"/></g><path fill="#e4c70a" d="M 114.328125 168.789062 C 114.328125 168.789062 109.667969 150.792969 124.304688 130.488281 C 124.304688 130.488281 114.546875 148.390625 117.742188 166.753906 C 122.535156 163.386719 131.042969 155.417969 134.355469 139.671875 C 137.988281 122.429688 124.402344 105.773438 124.402344 105.773438 C 123.007812 120.101562 93.140625 141.019531 114.328125 168.789062 " fill-opacity="1" fill-rule="nonzero"/></svg>