<svg xmlns="http://www.w3.org/2000/svg" xmlns:xlink="http://www.w3.org/1999/xlink" width="500" zoomAndPan="magnify" viewBox="0 0 375 374.999991" height="500" preserveAspectRatio="xMidYMid meet" version="1.0"><defs><filter x="0%" y="0%" width="100%" height="100%" id="2cafd8a307"><feColorMatrix values="0 0 0 0 1 0 0 0 0 1 0 0 0 0 1 0 0 0 1 0" color-interpolation-filters="sRGB"/></filter><mask id="7e37980622"><g filter="url(#2cafd8a307)"><rect x="-37.5" width="450" fill="#000000" y="-37.499999" height="449.999989" fill-opacity="0.3294"/></g></mask><clipPath id="c155479502"><path d="M 1 0.5 L 116 0.5 L 116 150.5 L 1 150.5 Z M 1 0.5 " clip-rule="nonzero"/></clipPath><clipPath id="ba05314a7f"><rect x="0" width="118" y="0" height="151"/></clipPath></defs><rect x="-37.5" width="450" fill="#ffffff" y="-37.499999" height="449.999989" fill-opacity="1"/><rect x="-37.5" width="450" fill="#ffffff" y="-37.499999" height="449.999989" fill-opacity="1"/><rect x="-37.5" width="450" fill="#071c3c" y="-37.499999" height="449.999989" fill-opacity="1"/><g mask="url(#7e37980622)"><g transform="matrix(1, 0, 0, 1, 129, 112)"><g clip-path="url(#ba05314a7f)"><g clip-path="url(#c155479502)"><path fill="#ffffff" d="M 44.933594 47.058594 L 44.933594 136.863281 C 44.933594 144.402344 51.050781 150.5 58.59375 150.5 C 66.140625 150.5 72.253906 144.402344 72.253906 136.863281 L 72.253906 47.058594 L 92.394531 67.167969 C 95.0625 69.828125 98.554688 71.160156 102.046875 71.160156 C 105.542969 71.160156 109.039062 69.828125 111.707031 67.167969 C 117.039062 61.84375 117.039062 53.207031 111.707031 47.886719 L 68.265625 4.503906 C 67.625 3.871094 66.921875 3.300781 66.167969 2.796875 C 65.824219 2.566406 65.4375 2.402344 65.074219 2.203125 C 64.660156 1.980469 64.265625 1.726562 63.820312 1.546875 C 63.359375 1.351562 62.867188 1.238281 62.390625 1.101562 C 62.015625 0.992188 61.660156 0.847656 61.269531 0.769531 C 60.386719 0.59375 59.496094 0.5 58.59375 0.5 C 57.691406 0.5 56.800781 0.59375 55.917969 0.773438 C 55.527344 0.847656 55.171875 0.992188 54.800781 1.101562 C 54.320312 1.242188 53.832031 1.355469 53.367188 1.546875 C 52.925781 1.726562 52.527344 1.980469 52.113281 2.203125 C 51.746094 2.40625 51.367188 2.566406 51.019531 2.800781 C 50.265625 3.300781 49.5625 3.871094 48.929688 4.507812 L 5.480469 47.886719 C 0.144531 53.207031 0.144531 61.84375 5.480469 67.167969 C 8.148438 69.828125 11.644531 71.160156 15.140625 71.160156 C 18.632812 71.160156 22.132812 69.828125 24.796875 67.167969 Z M 44.933594 47.058594 " fill-opacity="1" fill-rule="nonzero"/></g></g></g></g></svg>