<svg xmlns="http://www.w3.org/2000/svg" width="500" viewBox="0 0 375 375" height="500" version="1.0"><defs><clipPath id="a"><path d="M86.059 9.145h198.75v349.5H86.059zm0 0"/></clipPath></defs><path fill="#fff" d="M-37.5-37.5h450v450h-450z"/><path fill="#fff" d="M-37.5-37.5h450v450h-450z"/><path fill="#1a6ab1" d="M-37.5-37.5h450v450h-450z"/><g clip-path="url(#a)"><path fill="#fff" d="M212.512 19.336c2.304 0 6.918-6.77 6.918-10.191 0 3.421 4.61 10.19 6.918 10.19-2.309 0-6.918 6.77-6.918 10.192 0-3.422-4.614-10.191-6.918-10.191zM157.02 65.832c0-3.422 4.613-10.191 6.917-10.191-2.304 0-6.917-6.774-6.917-10.196 0 3.422-4.614 10.196-6.918 10.196 2.304 0 6.918 6.843 6.918 10.191zm47.011 47.832c0-3.422 4.61-10.191 6.918-10.191-2.308 0-6.918-6.77-6.918-10.192 0 3.422-4.613 10.192-6.918 10.192 2.305 0 6.918 6.843 6.918 10.191zm77.953 120.445c-1.41 2.676-3.793 4.239-6.246 5.801-3.941 2.383-8.183 4.168-12.347 5.953-2.008.817-4.094 1.711-6.102 2.676-3.2 1.488-6.547 3.125-9.742 5.133-3.719 2.308-5.504 6.398-7.067 10.047-4.464 10.34-6.175 21.199-7.214 30.5-.227 2.008-.45 4.015-.672 6.023-.446 4.02-.817 8.11-1.414 12.13-.297 2.378-.743 4.76-1.188 7.065-.523 2.829-1.117 5.727-1.414 8.555-.445 3.793-.672 7.664-.894 11.383-.149 2.453-.297 4.984-.52 7.438-.223 2.457-.52 4.91-.816 7.367-.153 1.117-.301 2.23-.45 3.273l-.074.371-1.34-.148.078-.82c0-.372 0-.668.075-1.04.148-1.265.297-2.457.445-3.718.297-2.457.594-4.985.816-7.516.149-2.008.297-4.09.45-6.027.37-5.801.742-11.754 1.933-17.555 1.114-5.133 2.008-10.637 2.676-16.813.297-2.382.52-4.761.746-7.14.52-5.656 1.04-11.531 2.379-17.188 1.785-7.586 3.645-15.398 7.961-22.316 1.633-2.68 3.496-4.54 5.652-5.879 2.305-1.414 4.836-2.601 7.215-3.719l1.04-.52a263.98 263.98 0 0 1 6.769-3.05c4.094-1.785 8.332-3.57 12.273-5.805 6.028-3.347 8.332-8.703 7.293-16.738-.598-4.387-2.531-8.555-4.539-12.422-2.976-5.805-6.918-10.64-10.414-14.582-2.453-2.828-4.984-5.875-6.695-9.598-.965-2.082-.89-3.644.222-5.207.97-1.34 1.934-2.75 2.903-4.09 4.015-5.581 8.406-12.277 11.082-20.234 1.785-5.433 3.57-11.906 3.273-18.972 0-.52-.074-.965-.148-1.489-.074-.816-.149-1.71-.149-2.527.223-3.871-.894-7.664-3.422-11.977-.074-.074-.148-.3-.296-.523-.075-.074-.149-.297-.223-.445 0 2.156-.149 6.175-.672 6.398l-.223.074-.296-.297v-.148c.37-9.45-1.043-16.367-4.688-22.395-2.75-4.539-6.32-9.671-11.75-12.644-1.86-1.043-4.094-1.785-6.25-2.086-1.563-.223-3.348.672-4.54 2.234-.593.743-1.038 1.637-1.187 2.453.223 0 .372.075.594.075.52.074 1.043.148 1.563.074 1.933-.223 3.422.598 4.613 2.457.965 1.562 1.637 2.977 2.23 4.312.372.895.668 2.012.743 3.2.148 1.71-.965 2.007-2.008 2.16h-.52c-1.117 0-2.082-.45-2.754-1.34-.52-.672-1.039-1.34-1.562-2.086.746 1.79 1.414 3.574 2.086 5.434l.074.222c1.188 3.274 2.453 6.696 1.934 10.489l-.149 1.043c-1.043 7.96-2.082 16.218-2.605 17.48l-.965 2.309.297-2.532c.074-.816.222-1.636.297-2.527.297-2.309.593-4.91.894-7.516.074-.668.074-1.414.074-2.156 0-1.266 0-2.531.371-3.719 1.415-4.91-.222-9.375-1.933-13.617 0 .074-.074.074-.074.153-.301.445-.524.89-.672 1.261a626.192 626.192 0 0 0-3.57 10.418c-.668 1.934-1.188 3.942-1.786 5.875-1.265 4.39-2.527 8.926-4.836 13.094-.89 1.562-1.785 3.05-2.675 4.539a171.278 171.278 0 0 0-3.125 5.356 234.1 234.1 0 0 0-3.051 5.875c-1.563 3.05-3.196 6.25-4.98 9.226-4.985 8.184-11.235 19.191-15.473 31.395l-.45 1.34-1.335 3.792-.375 1.043c-1.485 3.72-2.825 7.215-3.047 11.157a31.32 31.32 0 0 1-1.34 7.441c-1.488 4.688-2.305 9.297-2.528 13.984-.078 1.414-.226 2.903-.449 4.836-.445 3.348-.89 6.696-1.414 10.043-.445 3.348-.965 6.696-1.41 10.043-.148 1.266-.3 2.606-.45 3.793l-.073 1.117c.148 1.118.375 2.23.671 3.274.372 1.117.817 2.23 1.262 3.348.524 1.265 1.117 2.605 1.488 4.015.82 2.754 1.563 5.582 2.235 8.332a371.468 371.468 0 0 0 2.379 8.856c1.265 4.238 2.601 8.554 3.867 12.718a451.548 451.548 0 0 1 3.273 10.715 305.716 305.716 0 0 1 2.903 10.192c1.41 4.91 2.824 9.894 4.312 14.804 1.934 6.25 2.977 11.977 3.2 17.63 0 .226 0 .523-.075.745 0 .075 0 .223-.074.297l-.148.82-.524-.671c-.445-.52-.52-1.118-.594-1.489-.148-1.039-.222-2.156-.37-3.199-.223-2.305-.52-4.762-1.044-7.066-.668-2.903-1.636-5.801-2.527-8.63-.594-1.859-1.191-3.718-1.711-5.577-.668-2.383-1.34-4.91-1.934-7.293-.746-2.828-1.488-5.727-2.382-8.63a489.927 489.927 0 0 0-3.496-11.382c-1.336-4.387-2.75-8.852-4.016-13.39-.668-2.231-1.266-4.614-1.86-6.844-1.414-5.282-2.828-10.786-4.984-15.996-.89-2.082-1.262-3.868-1.113-5.504-.074-.149-.074-.371-.074-.594.445-4.02.964-7.961 1.484-11.977l.523-4.093c.594-4.54 1.114-9.223 1.786-13.836.593-4.317 1.113-7.887 1.71-11.086.446-2.305.891-4.614 1.415-6.844.297-1.34.593-2.68.816-3.941.148-.672.223-1.415.371-2.16.223-1.337.445-2.676.82-4.016.372-1.192.817-2.305 1.188-3.496l-.668-.446c-.594-.597-1.266-1.117-1.86-1.71-1.636-1.563-3.421-3.126-4.984-4.762-3.347-3.496-6.77-7.293-8.48-12.278a1531.38 1531.38 0 0 1-8.106-23.507c-2.531-7.586-5.207-15.028-9.82-21.575l-1.563-2.23c-2.23-3.274-4.539-6.695-7.734-9.375-3.05-2.453-6.77-5.207-11.828-6.547l1.414 4.316-.672.297c-.37-.742-.816-1.488-1.113-2.23-.746-1.488-1.414-2.828-2.234-4.168-1.86-2.977-4.684-5.207-8.477-6.621l.074.074c.223.45.445.82.668 1.266.668 1.414.52 2.23-.742 3.199-.3.222-.598.445-.895.594-.222.148-.445.222-.593.375-.45.296-.97.593-1.414.593h-.297a.567.567 0 0 1-.371-.148c0 .148.074.223.074.371.074.371.148.742.297 1.043 1.187 4.762 2.824 8.11 5.355 10.86 1.113 1.19 2.082 2.456 3.051 3.718.445.598.89 1.117 1.336 1.711l1.637 2.012-2.082-1.489c-1.043-.746-1.86-1.562-2.602-2.457l-.523-.52c-5.282-5.577-8.18-12.124-8.555-19.417 0-.371-.149-.668-.297-.817-1.562-1.71-3.348-2.68-5.504-2.976-.223 0-.445-.074-.594-.074.075.222.149.37.223.52.223.597.445 1.19.594 1.784.222.97-.223 1.938-1.266 2.383-.222.149-.445.149-.742.149-.52 0-1.043-.297-1.488-.895-.223-.297-.371-.594-.594-.965 0 .297.074.594.148.89.297 1.563.743 3.126 1.118 4.614.37 1.488.816 2.977 1.113 4.54.597 2.75 1.785 4.91 3.644 6.472 1.118.965 2.235 2.008 3.274 2.973l.445.375a93.31 93.31 0 0 0 2.754 2.601l1.191 1.192-.449.593c-2.676-1.71-4.683-3.347-6.32-5.058-.297-.297-.598-.594-.969-.965-1.637-1.637-3.347-3.348-4.015-5.434-1.34-4.015-3.422-7.808-6.622-11.902-2.304-2.973-4.91-4.387-8.105-4.164.594.222 1.039.816 1.559 1.785l.226.445.371.895c.371.742.149 1.562-.445 2.082-.598.52-1.266.965-2.012 1.191-.148.075-.222.075-.37.075-.372 0-.743-.149-1.04-.301.594 2.902 1.637 5.433 3.793 7.59 3.05 2.902 6.246 5.726 9.297 8.48 1.414 1.266 2.828 2.457 4.164 3.719l.672.672 2.23 2.156-2.379-1.266c-4.093-2.23-7.515-5.43-10.71-8.48-.598-.594-1.266-1.188-1.86-1.785-3.125-2.903-6.324-6.547-6.77-11.754 0-.223-.222-.594-.597-.965-1.86-1.863-3.867-2.977-6.246-3.348-1.934-.3-3.348.149-4.242 1.485-.371.523-.594 1.117-.743 1.636 1.563-.816 2.157-.593 3.051.82.223.372.445.669.594 1.04.52 1.117.371 1.937-.594 2.68-.375.296-.82.445-1.34.445-.222 0-.37 0-.593-.075 1.636 2.31 3.867 4.02 6.023 5.657.52.37 1.043.816 1.563 1.261 2.453 1.938 5.132 3.723 7.734 5.434 1.266.816 2.605 1.711 3.871 2.527.297.223 4.758 3.946 4.832 4.465v.149l-.297.445-.297-.223c-3.05-2.527-6.472-4.761-9.672-6.992-4.832-3.273-9.816-6.62-14.058-10.937-.445.148-.817.3-1.262.449-1.043.371-2.008.742-2.902 1.187-1.489.746-2.38 2.16-2.528 4.094-.074.89.149 1.563.743 2.23.074-.37.222-.742.445-1.038a58.339 58.339 0 0 1 3.496-3.797l.45-.446c.222-.222.519-.297.816-.37.074 0 .148 0 .222-.075l.149-.074.148.074c.223.148.45.223.598.297.445.223.816.445 1.262.742l.746.524c1.113.816 2.23 1.562 3.199 2.527 1.336 1.266 1.558 2.457.594 4.02-.446.816-1.118 1.488-1.637 2.23-.371.371-.817.668-1.266.742 1.489 1.117 2.828 2.383 3.946 4.02.593.89 1.632 1.562 2.675 2.156l.149.074c.82.52 1.636.895 2.457 1.34.668.297 1.262.668 1.933 1.043l.446.223c3.273 1.859 6.62 3.718 9.222 6.695 2.23 2.527 3.793 5.43 5.282 8.258.445.816.82 1.562 1.265 2.379 2.23 4.02 3.348 8.554 3.422 14.285.074 6.547.52 13.02.965 18.968.152 1.86.45 3.793.746 5.579.52 3.125 1.04 6.324.742 9.597 0 .297-.074.598-.074.82-.074.743-.148 1.415-.074 2.083.222 1.636.37 3.273.52 4.91.449 4.09.82 8.332 1.863 12.347 1.933 7.887 4.312 15.848 6.543 23.508.82 2.903 1.71 5.805 2.53 8.707l.966 3.274c4.242 14.652 8.554 29.832 10.86 45.23l.448 3.2c.89 5.726 1.785 11.68 2.23 17.48.669 7.59 1.044 15.324 1.415 22.765.148 2.305.222 4.614.37 6.844v.371h-1.339v-.37c-.297-10.192-.965-20.907-2.082-32.66-1.34-13.763-4.09-28.642-8.852-46.794-2.527-9.82-5.578-19.715-8.406-29.308-1.113-3.797-2.304-7.516-3.422-11.31-2.675-9.077-4.238-17.632-4.757-26.26-.075-1.712-.153-3.423-.227-5.06-.074-3.421-.223-6.917-.816-10.34-1.192-6.991-1.637-14.433-1.415-22.616.223-9.297-3.867-16.739-7.957-22.836-2.902-4.243-7.14-6.848-11.382-9.004l-.149-.075c-3.496-1.785-7.14-3.644-9.297-7.363-.148-.297-.597-.449-.968-.672-.149-.074-.371-.148-.52-.297-.82-.445-1.637-.89-2.379-1.34-1.863-1.038-3.722-2.081-5.582-3.273-1.039-.445-1.933-1.562-2.305-2.676-.894-2.68.743-5.73 3.57-6.992.821-.375 1.637-.746 2.454-1.117.3-.148.523-.223.82-.371l-.148-.223c-.149-.3-.297-.523-.371-.746a7.494 7.494 0 0 1-.82-2.156c-.223-.445-.223-.746-.15-1.043-.073-1.414.372-2.75 1.34-3.941 1.563-1.934 3.794-2.457 6.247-1.637a39.3 39.3 0 0 1 4.094 1.785c.296.148.52.297.816.371 0-.074 0-.148.074-.223 0-.074.074-.148.149-.296-.149-.82-.075-1.786 1.191-2.309 1.414-.52 2.977-.594 4.09-.52 3.871.149 6.324 2.68 8.183 5.059.594.746 1.786 2.754 2.829 4.54.074.148.222.37.296.519-.074-.371-.222-.743-.296-1.118-.375-1.41-.746-2.675-.895-3.27-.371-1.937-.074-3.425.895-4.39.89-.968 2.453-1.34 4.312-1.043 2.531.371 4.39 1.34 5.875 3.051 1.34-1.637 3.125-2.082 5.207-1.266 3.871 1.415 6.695 3.348 8.703 5.954 1.266 1.636 2.828 2.754 4.91 3.347 5.282 1.637 9.895 4.836 13.688 9.524 3.941 4.836 7.289 9.668 9.82 14.504 2.899 5.433 5.059 11.308 7.215 17.039l.445 1.113c1.786 4.762 3.422 9.894 5.43 16.664 1.785 6.102 4.164 10.566 7.512 13.988 1.933 2.008 4.02 4.016 6.027 5.875.965.895 1.934 1.785 2.824 2.754.153.149.301.297.375.371 1.04-2.754 2.082-5.504 3.121-8.258l.075-.148c4.39-11.457 10.34-21.945 16.144-31.543 3.645-6.101 6.918-12.422 9.668-17.93.524-.964 1.117-1.933 1.711-2.898.82-1.266 1.637-2.606 2.156-3.945 1.118-2.75 2.012-5.653 2.903-8.48.445-1.415.894-2.829 1.414-4.24.594-1.636 1.039-3.421 1.562-5.058 1.114-3.87 2.305-7.812 4.313-11.383.148-.222.222-.597.148-.82-.222-.668-.445-1.34-.668-1.933-.668-1.86-1.34-3.72-2.23-5.43-.297-.524-.524-1.043-.598-1.563-.297-.52-.594-.968-.89-1.488-.075-.148-.149-.297-.149-.52 0-.074 0-.226-.074-.374l-.074-.446h1.113c.223-1.265.82-2.379 1.488-3.347 1.414-2.157 3.719-3.2 6.102-2.602 1.71.445 3.496 1.04 5.133 1.711.89.297 1.71.668 2.527.89.297-.37.668-.742 1.043-1.117 1.558-1.71 3.195-3.57 4.61-5.504.296-.445.597-.742.968-1.117.223-1.113 1.04-1.86 1.86-2.527.742-.594 1.34-.82 1.859-.742.445.074.816.37 1.191.965l1.336-.223c.149 0 .3-.074.45-.074l.816-1.043c.445-.52.82-.817 1.34-.89.445-.075.89.148 1.34.593.296.297.593.594.816.894l.148.075c2.383.816 3.942 3.273 3.867 6.246 0 5.058-2.453 9.004-5.355 13.242-.816 1.266-1.711 2.531-2.527 3.797l-.672 1.039c-.594.894-.668 1.71-.223 3.125.524 1.71.969 3.496 1.414 5.207a74.775 74.775 0 0 0 1.043 3.871c.371 1.336.742 2.527 1.488 3.496 2.676 3.793 4.09 7.883 4.164 12.348v.074c0 1.34.075 2.754.149 4.168.371 4.61-.149 9.371-1.488 14.578-2.38 9.004-6.621 17.707-13.164 26.633-.97 1.34-2.008 2.828-2.903 4.539-.297.598-.445 1.562-.222 2.156 1.043 2.235 2.007 3.871 3.05 5.285 1.489 2.008 3.121 3.942 4.684 5.875.894 1.118 1.86 2.235 2.754 3.348 6.246 7.813 10.043 15.398 11.605 23.285.668 4.39 0 8.63-2.086 12.574zm-19.71-140.605c1.265-3.645 3.57-6.547 5.8-9.297a49.1 49.1 0 0 0 2.383-3.05h-.074l-.297.37c-.969 1.118-1.863 2.082-3.2 2.68-.222.074-.449.148-.745.148-.223 0-.446-.074-.668-.148a51.356 51.356 0 0 0-3.348 3.719c-.594.668-1.117 1.265-1.71 1.933-.446.446-.595.895-.595 1.266.075.297.297.668.817.965.52.3.968.746 1.414 1.191l.222.223zm7.734 9.969c.597-.965 1.265-1.934 1.863-2.899 1.711-2.605 3.496-5.285 4.906-8.035 1.118-2.16 1.563-4.836 1.786-7.144.148-1.188-.594-2.602-1.262-3.57-.223-.298-.45-.52-.672-.743v.223c0 .37-.149.742-.445.968l-.372.297c-.519.446-.968.817-1.488 1.114-.82.523-1.488.746-2.008.746-.222 0-.37 0-.597-.075-.446-.148-.817-.597-1.188-1.19-2.828 3.198-5.726 6.769-7.289 11.16zm-87.176 98.422c-.523-1.04-1.117-2.157-1.637-3.2-.297-.593-.597-1.187-.968-1.71-.149-.223-.297-.52-.446-.743l-.668.297c1.711 4.316 3.719 8.406 5.504 11.902 1.86 3.57 3.645 7.961 3.274 12.871l-.075 1.489c-.152 2.156-.3 4.465-.597 6.695-.223 2.082-.52 4.242-.817 6.324-.148.89-.222 1.86-.37 2.75l-.079.375.524.075.148-.075s.074-.074.074-.222c0-.078 0-.227.074-.301.594-2.602 2.157-13.762 2.454-16.664.375-3.645-.223-7.067-1.711-10.192-1.485-3.347-3.121-6.546-4.684-9.671zm0 0"/></g></svg>