<svg xmlns="http://www.w3.org/2000/svg" xmlns:xlink="http://www.w3.org/1999/xlink" width="500" zoomAndPan="magnify" viewBox="0 0 375 374.999991" height="500" preserveAspectRatio="xMidYMid meet" version="1.0"><defs><clipPath id="4a2522747e"><path d="M 86.058594 9.144531 L 284.808594 9.144531 L 284.808594 358.644531 L 86.058594 358.644531 Z M 86.058594 9.144531 " clip-rule="nonzero"/></clipPath></defs><rect x="-37.5" width="450" fill="#ffffff" y="-37.499999" height="449.999989" fill-opacity="1"/><rect x="-37.5" width="450" fill="#ffffff" y="-37.499999" height="449.999989" fill-opacity="1"/><rect x="-37.5" width="450" fill="#1a6ab1" y="-37.499999" height="449.999989" fill-opacity="1"/><g clip-path="url(#4a2522747e)"><path fill="#ffffff" d="M 212.511719 19.335938 C 214.816406 19.335938 219.429688 12.566406 219.429688 9.144531 C 219.429688 12.566406 224.039062 19.335938 226.347656 19.335938 C 224.039062 19.335938 219.429688 26.105469 219.429688 29.527344 C 219.429688 26.105469 214.816406 19.335938 212.511719 19.335938 Z M 157.019531 65.832031 C 157.019531 62.410156 161.632812 55.640625 163.9375 55.640625 C 161.632812 55.640625 157.019531 48.867188 157.019531 45.445312 C 157.019531 48.867188 152.40625 55.640625 150.101562 55.640625 C 152.40625 55.640625 157.019531 62.484375 157.019531 65.832031 Z M 204.03125 113.664062 C 204.03125 110.242188 208.640625 103.472656 210.949219 103.472656 C 208.640625 103.472656 204.03125 96.703125 204.03125 93.28125 C 204.03125 96.703125 199.417969 103.472656 197.113281 103.472656 C 199.417969 103.472656 204.03125 110.316406 204.03125 113.664062 Z M 281.984375 234.109375 C 280.574219 236.785156 278.191406 238.347656 275.738281 239.910156 C 271.796875 242.292969 267.554688 244.078125 263.390625 245.863281 C 261.382812 246.679688 259.296875 247.574219 257.289062 248.539062 C 254.089844 250.027344 250.742188 251.664062 247.546875 253.671875 C 243.828125 255.980469 242.042969 260.070312 240.480469 263.71875 C 236.015625 274.058594 234.304688 284.917969 233.265625 294.21875 C 233.039062 296.226562 232.816406 298.234375 232.59375 300.242188 C 232.148438 304.261719 231.777344 308.351562 231.179688 312.371094 C 230.882812 314.75 230.4375 317.132812 229.992188 319.4375 C 229.46875 322.265625 228.875 325.164062 228.578125 327.992188 C 228.132812 331.785156 227.90625 335.65625 227.683594 339.375 C 227.535156 341.828125 227.386719 344.359375 227.164062 346.8125 C 226.941406 349.269531 226.644531 351.722656 226.347656 354.179688 C 226.195312 355.296875 226.046875 356.410156 225.898438 357.453125 L 225.824219 357.824219 L 224.484375 357.675781 L 224.5625 356.855469 C 224.5625 356.484375 224.5625 356.1875 224.636719 355.816406 C 224.785156 354.550781 224.933594 353.359375 225.082031 352.097656 C 225.378906 349.640625 225.675781 347.113281 225.898438 344.582031 C 226.046875 342.574219 226.195312 340.492188 226.347656 338.554688 C 226.71875 332.753906 227.089844 326.800781 228.28125 321 C 229.394531 315.867188 230.289062 310.363281 230.957031 304.1875 C 231.253906 301.804688 231.476562 299.425781 231.703125 297.046875 C 232.222656 291.390625 232.742188 285.515625 234.082031 279.859375 C 235.867188 272.273438 237.726562 264.460938 242.042969 257.542969 C 243.675781 254.863281 245.539062 253.003906 247.695312 251.664062 C 250 250.25 252.53125 249.0625 254.910156 247.945312 L 255.949219 247.425781 C 258.183594 246.382812 260.488281 245.339844 262.71875 244.375 C 266.8125 242.589844 271.050781 240.804688 274.992188 238.570312 C 281.019531 235.222656 283.324219 229.867188 282.285156 221.832031 C 281.6875 217.445312 279.753906 213.277344 277.746094 209.410156 C 274.769531 203.605469 270.828125 198.769531 267.332031 194.828125 C 264.878906 192 262.347656 188.953125 260.636719 185.230469 C 259.671875 183.148438 259.746094 181.585938 260.859375 180.023438 C 261.828125 178.683594 262.792969 177.273438 263.761719 175.933594 C 267.777344 170.351562 272.167969 163.65625 274.84375 155.699219 C 276.628906 150.265625 278.414062 143.792969 278.117188 136.726562 C 278.117188 136.207031 278.042969 135.761719 277.96875 135.238281 C 277.894531 134.421875 277.820312 133.527344 277.820312 132.710938 C 278.042969 128.839844 276.925781 125.046875 274.398438 120.734375 C 274.324219 120.660156 274.25 120.433594 274.101562 120.210938 C 274.027344 120.136719 273.953125 119.914062 273.878906 119.765625 C 273.878906 121.921875 273.730469 125.941406 273.207031 126.164062 L 272.984375 126.238281 L 272.6875 125.941406 L 272.6875 125.792969 C 273.058594 116.34375 271.644531 109.425781 268 103.398438 C 265.25 98.859375 261.679688 93.726562 256.25 90.753906 C 254.390625 89.710938 252.15625 88.96875 250 88.667969 C 248.4375 88.445312 246.652344 89.339844 245.460938 90.902344 C 244.867188 91.644531 244.421875 92.539062 244.273438 93.355469 C 244.496094 93.355469 244.644531 93.429688 244.867188 93.429688 C 245.386719 93.503906 245.910156 93.578125 246.429688 93.503906 C 248.363281 93.28125 249.851562 94.101562 251.042969 95.960938 C 252.007812 97.523438 252.679688 98.9375 253.273438 100.273438 C 253.644531 101.167969 253.941406 102.285156 254.015625 103.472656 C 254.164062 105.183594 253.050781 105.480469 252.007812 105.632812 C 251.859375 105.632812 251.636719 105.632812 251.488281 105.632812 C 250.371094 105.632812 249.40625 105.183594 248.734375 104.292969 C 248.214844 103.621094 247.695312 102.953125 247.171875 102.207031 C 247.917969 103.996094 248.585938 105.78125 249.257812 107.640625 L 249.332031 107.863281 C 250.519531 111.136719 251.785156 114.558594 251.265625 118.351562 L 251.117188 119.394531 C 250.074219 127.355469 249.035156 135.613281 248.511719 136.875 L 247.546875 139.183594 L 247.84375 136.652344 C 247.917969 135.835938 248.066406 135.015625 248.140625 134.125 C 248.4375 131.816406 248.734375 129.214844 249.035156 126.609375 C 249.109375 125.941406 249.109375 125.195312 249.109375 124.453125 C 249.109375 123.1875 249.109375 121.921875 249.480469 120.734375 C 250.894531 115.824219 249.257812 111.359375 247.546875 107.117188 C 247.546875 107.191406 247.472656 107.191406 247.472656 107.269531 C 247.171875 107.714844 246.949219 108.160156 246.800781 108.53125 C 245.539062 112.101562 244.347656 115.601562 243.230469 118.949219 C 242.5625 120.882812 242.042969 122.890625 241.445312 124.824219 C 240.179688 129.214844 238.917969 133.75 236.609375 137.917969 C 235.71875 139.480469 234.824219 140.96875 233.933594 142.457031 C 232.890625 144.167969 231.851562 145.953125 230.808594 147.8125 C 229.769531 149.746094 228.726562 151.753906 227.757812 153.6875 C 226.195312 156.738281 224.5625 159.9375 222.777344 162.914062 C 217.792969 171.097656 211.542969 182.105469 207.304688 194.308594 L 206.855469 195.648438 C 206.410156 196.910156 205.964844 198.175781 205.519531 199.441406 L 205.144531 200.484375 C 203.660156 204.203125 202.320312 207.699219 202.097656 211.640625 C 201.949219 214.171875 201.5 216.699219 200.757812 219.082031 C 199.269531 223.769531 198.453125 228.378906 198.230469 233.066406 C 198.152344 234.480469 198.003906 235.96875 197.78125 237.902344 C 197.335938 241.25 196.890625 244.597656 196.367188 247.945312 C 195.921875 251.292969 195.402344 254.640625 194.957031 257.988281 C 194.808594 259.253906 194.65625 260.59375 194.507812 261.78125 L 194.433594 262.898438 C 194.582031 264.015625 194.808594 265.128906 195.105469 266.171875 C 195.476562 267.289062 195.921875 268.402344 196.367188 269.519531 C 196.890625 270.785156 197.484375 272.125 197.855469 273.535156 C 198.675781 276.289062 199.417969 279.117188 200.089844 281.867188 C 200.832031 284.769531 201.648438 287.820312 202.46875 290.722656 C 203.734375 294.960938 205.070312 299.277344 206.335938 303.441406 C 207.453125 306.9375 208.566406 310.585938 209.609375 314.15625 C 210.652344 317.578125 211.617188 321 212.511719 324.347656 C 213.921875 329.257812 215.335938 334.242188 216.824219 339.152344 C 218.757812 345.402344 219.800781 351.128906 220.023438 356.78125 C 220.023438 357.007812 220.023438 357.304688 219.949219 357.527344 C 219.949219 357.601562 219.949219 357.75 219.875 357.824219 L 219.726562 358.644531 L 219.203125 357.972656 C 218.757812 357.453125 218.683594 356.855469 218.609375 356.484375 C 218.460938 355.445312 218.386719 354.328125 218.238281 353.285156 C 218.015625 350.980469 217.71875 348.523438 217.195312 346.21875 C 216.527344 343.316406 215.558594 340.417969 214.667969 337.589844 C 214.074219 335.730469 213.476562 333.871094 212.957031 332.011719 C 212.289062 329.628906 211.617188 327.101562 211.023438 324.71875 C 210.277344 321.890625 209.535156 318.992188 208.640625 316.089844 C 207.527344 312.296875 206.335938 308.425781 205.144531 304.707031 C 203.808594 300.320312 202.394531 295.855469 201.128906 291.316406 C 200.460938 289.085938 199.863281 286.703125 199.269531 284.472656 C 197.855469 279.191406 196.441406 273.6875 194.285156 268.476562 C 193.394531 266.394531 193.023438 264.609375 193.171875 262.972656 C 193.097656 262.824219 193.097656 262.601562 193.097656 262.378906 C 193.542969 258.359375 194.0625 254.417969 194.582031 250.402344 L 195.105469 246.308594 C 195.699219 241.769531 196.21875 237.085938 196.890625 232.472656 C 197.484375 228.15625 198.003906 224.585938 198.601562 221.386719 C 199.046875 219.082031 199.492188 216.773438 200.015625 214.542969 C 200.3125 213.203125 200.609375 211.863281 200.832031 210.601562 C 200.980469 209.929688 201.054688 209.1875 201.203125 208.441406 C 201.425781 207.105469 201.648438 205.765625 202.023438 204.425781 C 202.394531 203.234375 202.839844 202.121094 203.210938 200.929688 C 202.988281 200.78125 202.765625 200.632812 202.542969 200.484375 C 201.949219 199.886719 201.277344 199.367188 200.683594 198.773438 C 199.046875 197.210938 197.261719 195.648438 195.699219 194.011719 C 192.351562 190.515625 188.929688 186.71875 187.21875 181.734375 C 184.765625 174.816406 181.9375 166.632812 179.113281 158.226562 C 176.582031 150.640625 173.90625 143.199219 169.292969 136.652344 C 168.773438 135.910156 168.25 135.164062 167.730469 134.421875 C 165.5 131.148438 163.191406 127.726562 159.996094 125.046875 C 156.945312 122.59375 153.226562 119.839844 148.167969 118.5 L 149.582031 122.816406 L 148.910156 123.113281 C 148.539062 122.371094 148.09375 121.625 147.796875 120.882812 C 147.050781 119.394531 146.382812 118.054688 145.5625 116.714844 C 143.703125 113.738281 140.878906 111.507812 137.085938 110.09375 L 137.160156 110.167969 C 137.382812 110.617188 137.605469 110.988281 137.828125 111.433594 C 138.496094 112.847656 138.347656 113.664062 137.085938 114.632812 C 136.785156 114.855469 136.488281 115.078125 136.191406 115.226562 C 135.96875 115.375 135.746094 115.449219 135.597656 115.601562 C 135.148438 115.898438 134.628906 116.195312 134.183594 116.195312 C 134.109375 116.195312 133.960938 116.195312 133.886719 116.195312 C 133.738281 116.195312 133.589844 116.121094 133.515625 116.046875 C 133.515625 116.195312 133.589844 116.269531 133.589844 116.417969 C 133.664062 116.789062 133.738281 117.160156 133.886719 117.460938 C 135.074219 122.222656 136.710938 125.570312 139.242188 128.320312 C 140.355469 129.511719 141.324219 130.777344 142.292969 132.039062 C 142.738281 132.636719 143.183594 133.15625 143.628906 133.75 L 145.265625 135.761719 L 143.183594 134.273438 C 142.140625 133.527344 141.324219 132.710938 140.582031 131.816406 L 140.058594 131.296875 C 134.777344 125.71875 131.878906 119.171875 131.503906 111.878906 C 131.503906 111.507812 131.355469 111.210938 131.207031 111.0625 C 129.644531 109.351562 127.859375 108.382812 125.703125 108.085938 C 125.480469 108.085938 125.257812 108.011719 125.109375 108.011719 C 125.183594 108.234375 125.257812 108.382812 125.332031 108.53125 C 125.554688 109.128906 125.777344 109.722656 125.925781 110.316406 C 126.148438 111.285156 125.703125 112.253906 124.660156 112.699219 C 124.4375 112.847656 124.214844 112.847656 123.917969 112.847656 C 123.398438 112.847656 122.875 112.550781 122.429688 111.953125 C 122.207031 111.65625 122.058594 111.359375 121.835938 110.988281 C 121.835938 111.285156 121.910156 111.582031 121.984375 111.878906 C 122.28125 113.441406 122.726562 115.003906 123.101562 116.492188 C 123.472656 117.980469 123.917969 119.46875 124.214844 121.03125 C 124.8125 123.78125 126 125.941406 127.859375 127.503906 C 128.976562 128.46875 130.09375 129.511719 131.132812 130.476562 L 131.578125 130.851562 C 132.472656 131.742188 133.441406 132.636719 134.332031 133.453125 L 135.523438 134.644531 L 135.074219 135.238281 C 132.398438 133.527344 130.390625 131.890625 128.753906 130.179688 C 128.457031 129.882812 128.15625 129.585938 127.785156 129.214844 C 126.148438 127.578125 124.4375 125.867188 123.769531 123.78125 C 122.429688 119.765625 120.347656 115.972656 117.148438 111.878906 C 114.84375 108.90625 112.238281 107.492188 109.042969 107.714844 C 109.636719 107.9375 110.082031 108.53125 110.601562 109.5 L 110.828125 109.945312 L 111.199219 110.839844 C 111.570312 111.582031 111.347656 112.402344 110.753906 112.921875 C 110.15625 113.441406 109.488281 113.886719 108.742188 114.113281 C 108.59375 114.1875 108.519531 114.1875 108.371094 114.1875 C 108 114.1875 107.628906 114.039062 107.332031 113.886719 C 107.925781 116.789062 108.96875 119.320312 111.125 121.476562 C 114.175781 124.378906 117.371094 127.203125 120.421875 129.957031 C 121.835938 131.222656 123.25 132.414062 124.585938 133.675781 C 124.8125 133.902344 125.035156 134.125 125.257812 134.347656 L 127.488281 136.503906 L 125.109375 135.238281 C 121.015625 133.007812 117.59375 129.808594 114.398438 126.757812 C 113.800781 126.164062 113.132812 125.570312 112.539062 124.972656 C 109.414062 122.070312 106.214844 118.425781 105.769531 113.21875 C 105.769531 112.996094 105.546875 112.625 105.171875 112.253906 C 103.3125 110.390625 101.304688 109.277344 98.925781 108.90625 C 96.992188 108.605469 95.578125 109.054688 94.683594 110.390625 C 94.3125 110.914062 94.089844 111.507812 93.941406 112.027344 C 95.503906 111.210938 96.097656 111.433594 96.992188 112.847656 C 97.214844 113.21875 97.4375 113.515625 97.585938 113.886719 C 98.105469 115.003906 97.957031 115.824219 96.992188 116.566406 C 96.617188 116.863281 96.171875 117.011719 95.652344 117.011719 C 95.429688 117.011719 95.28125 117.011719 95.058594 116.9375 C 96.695312 119.246094 98.925781 120.957031 101.082031 122.59375 C 101.601562 122.964844 102.125 123.410156 102.644531 123.855469 C 105.097656 125.792969 107.777344 127.578125 110.378906 129.289062 C 111.644531 130.105469 112.984375 131 114.25 131.816406 C 114.546875 132.039062 119.007812 135.761719 119.082031 136.28125 L 119.082031 136.429688 L 118.785156 136.875 L 118.488281 136.652344 C 115.4375 134.125 112.015625 131.890625 108.816406 129.660156 C 103.984375 126.386719 99 123.039062 94.757812 118.722656 C 94.3125 118.871094 93.941406 119.023438 93.496094 119.171875 C 92.453125 119.542969 91.488281 119.914062 90.59375 120.359375 C 89.105469 121.105469 88.214844 122.519531 88.066406 124.453125 C 87.992188 125.34375 88.214844 126.015625 88.808594 126.683594 C 88.882812 126.3125 89.03125 125.941406 89.253906 125.644531 C 90.371094 124.304688 91.5625 123.039062 92.75 121.847656 L 93.199219 121.402344 C 93.421875 121.179688 93.71875 121.105469 94.015625 121.03125 C 94.089844 121.03125 94.164062 121.03125 94.238281 120.957031 L 94.386719 120.882812 L 94.535156 120.957031 C 94.757812 121.105469 94.984375 121.179688 95.132812 121.253906 C 95.578125 121.476562 95.949219 121.699219 96.394531 121.996094 L 97.140625 122.519531 C 98.253906 123.335938 99.371094 124.082031 100.339844 125.046875 C 101.675781 126.3125 101.898438 127.503906 100.933594 129.066406 C 100.488281 129.882812 99.816406 130.554688 99.296875 131.296875 C 98.925781 131.667969 98.480469 131.964844 98.03125 132.039062 C 99.519531 133.15625 100.859375 134.421875 101.976562 136.058594 C 102.570312 136.949219 103.609375 137.621094 104.652344 138.214844 L 104.800781 138.289062 C 105.621094 138.808594 106.4375 139.183594 107.257812 139.628906 C 107.925781 139.925781 108.519531 140.296875 109.191406 140.671875 L 109.636719 140.894531 C 112.910156 142.753906 116.257812 144.613281 118.859375 147.589844 C 121.089844 150.117188 122.652344 153.019531 124.140625 155.847656 C 124.585938 156.664062 124.960938 157.410156 125.40625 158.226562 C 127.636719 162.246094 128.753906 166.78125 128.828125 172.511719 C 128.902344 179.058594 129.347656 185.53125 129.792969 191.480469 C 129.945312 193.339844 130.242188 195.273438 130.539062 197.058594 C 131.058594 200.183594 131.578125 203.382812 131.28125 206.65625 C 131.28125 206.953125 131.207031 207.253906 131.207031 207.476562 C 131.132812 208.21875 131.058594 208.890625 131.132812 209.558594 C 131.355469 211.195312 131.503906 212.832031 131.652344 214.46875 C 132.101562 218.558594 132.472656 222.800781 133.515625 226.816406 C 135.449219 234.703125 137.828125 242.664062 140.058594 250.324219 C 140.878906 253.226562 141.769531 256.128906 142.589844 259.03125 L 143.554688 262.304688 C 147.796875 276.957031 152.109375 292.136719 154.414062 307.535156 L 154.863281 310.734375 C 155.753906 316.460938 156.648438 322.414062 157.09375 328.214844 C 157.761719 335.804688 158.136719 343.539062 158.507812 350.980469 C 158.65625 353.285156 158.730469 355.59375 158.878906 357.824219 L 158.878906 358.195312 L 157.539062 358.195312 L 157.539062 357.824219 C 157.242188 347.632812 156.574219 336.917969 155.457031 325.164062 C 154.117188 311.402344 151.367188 296.523438 146.605469 278.371094 C 144.078125 268.550781 141.027344 258.65625 138.199219 249.0625 C 137.085938 245.265625 135.894531 241.546875 134.777344 237.753906 C 132.101562 228.675781 130.539062 220.121094 130.019531 211.492188 C 129.945312 209.78125 129.867188 208.070312 129.792969 206.433594 C 129.71875 203.011719 129.570312 199.515625 128.976562 196.09375 C 127.785156 189.101562 127.339844 181.660156 127.5625 173.476562 C 127.785156 164.179688 123.695312 156.738281 119.605469 150.640625 C 116.703125 146.398438 112.464844 143.792969 108.222656 141.636719 L 108.074219 141.5625 C 104.578125 139.777344 100.933594 137.917969 98.777344 134.199219 C 98.628906 133.902344 98.179688 133.75 97.808594 133.527344 C 97.660156 133.453125 97.4375 133.378906 97.289062 133.230469 C 96.46875 132.785156 95.652344 132.339844 94.910156 131.890625 C 93.046875 130.851562 91.1875 129.808594 89.328125 128.617188 C 88.289062 128.171875 87.394531 127.054688 87.023438 125.941406 C 86.128906 123.261719 87.765625 120.210938 90.59375 118.949219 C 91.414062 118.574219 92.230469 118.203125 93.046875 117.832031 C 93.347656 117.683594 93.570312 117.609375 93.867188 117.460938 L 93.71875 117.238281 C 93.570312 116.9375 93.421875 116.714844 93.347656 116.492188 C 92.972656 115.824219 92.675781 115.078125 92.527344 114.335938 C 92.304688 113.890625 92.304688 113.589844 92.378906 113.292969 C 92.304688 111.878906 92.75 110.542969 93.71875 109.351562 C 95.28125 107.417969 97.511719 106.894531 99.964844 107.714844 C 101.378906 108.234375 102.71875 108.828125 104.058594 109.5 C 104.355469 109.648438 104.578125 109.796875 104.875 109.871094 C 104.875 109.796875 104.875 109.722656 104.949219 109.648438 C 104.949219 109.574219 105.023438 109.5 105.097656 109.351562 C 104.949219 108.53125 105.023438 107.566406 106.289062 107.042969 C 107.703125 106.523438 109.265625 106.449219 110.378906 106.523438 C 114.25 106.671875 116.703125 109.203125 118.5625 111.582031 C 119.15625 112.328125 120.347656 114.335938 121.390625 116.121094 C 121.464844 116.269531 121.613281 116.492188 121.6875 116.640625 C 121.613281 116.269531 121.464844 115.898438 121.390625 115.523438 C 121.015625 114.113281 120.644531 112.847656 120.496094 112.253906 C 120.125 110.316406 120.421875 108.828125 121.390625 107.863281 C 122.28125 106.894531 123.84375 106.523438 125.703125 106.820312 C 128.234375 107.191406 130.09375 108.160156 131.578125 109.871094 C 132.917969 108.234375 134.703125 107.789062 136.785156 108.605469 C 140.65625 110.019531 143.480469 111.953125 145.488281 114.558594 C 146.753906 116.195312 148.316406 117.3125 150.398438 117.90625 C 155.679688 119.542969 160.292969 122.742188 164.085938 127.429688 C 168.027344 132.265625 171.375 137.097656 173.90625 141.933594 C 176.804688 147.367188 178.964844 153.242188 181.121094 158.972656 L 181.566406 160.085938 C 183.351562 164.847656 184.988281 169.980469 186.996094 176.75 C 188.78125 182.851562 191.160156 187.316406 194.507812 190.738281 C 196.441406 192.746094 198.527344 194.753906 200.535156 196.613281 C 201.5 197.507812 202.46875 198.398438 203.359375 199.367188 C 203.511719 199.515625 203.660156 199.664062 203.734375 199.738281 C 204.773438 196.984375 205.816406 194.234375 206.855469 191.480469 L 206.929688 191.332031 C 211.320312 179.875 217.269531 169.386719 223.074219 159.789062 C 226.71875 153.6875 229.992188 147.367188 232.742188 141.859375 C 233.265625 140.894531 233.859375 139.925781 234.453125 138.960938 C 235.273438 137.695312 236.089844 136.355469 236.609375 135.015625 C 237.726562 132.265625 238.621094 129.363281 239.511719 126.535156 C 239.957031 125.121094 240.40625 123.707031 240.925781 122.296875 C 241.519531 120.660156 241.964844 118.875 242.488281 117.238281 C 243.601562 113.367188 244.792969 109.425781 246.800781 105.855469 C 246.949219 105.632812 247.023438 105.257812 246.949219 105.035156 C 246.726562 104.367188 246.503906 103.695312 246.28125 103.101562 C 245.613281 101.242188 244.941406 99.382812 244.050781 97.671875 C 243.753906 97.148438 243.527344 96.628906 243.453125 96.109375 C 243.15625 95.589844 242.859375 95.140625 242.5625 94.621094 C 242.488281 94.472656 242.414062 94.324219 242.414062 94.101562 C 242.414062 94.027344 242.414062 93.875 242.339844 93.726562 L 242.265625 93.28125 L 242.710938 93.28125 C 242.859375 93.28125 243.082031 93.28125 243.230469 93.28125 C 243.304688 93.28125 243.378906 93.28125 243.378906 93.28125 C 243.601562 92.015625 244.199219 90.902344 244.867188 89.933594 C 246.28125 87.777344 248.585938 86.734375 250.96875 87.332031 C 252.679688 87.777344 254.464844 88.371094 256.101562 89.042969 C 256.992188 89.339844 257.8125 89.710938 258.628906 89.933594 C 258.925781 89.5625 259.296875 89.191406 259.671875 88.816406 C 261.230469 87.105469 262.867188 85.246094 264.28125 83.3125 C 264.578125 82.867188 264.878906 82.570312 265.25 82.195312 C 265.472656 81.082031 266.289062 80.335938 267.109375 79.667969 C 267.851562 79.074219 268.449219 78.847656 268.96875 78.925781 C 269.414062 79 269.785156 79.296875 270.160156 79.890625 C 270.605469 79.816406 271.050781 79.742188 271.496094 79.667969 C 271.644531 79.667969 271.796875 79.59375 271.945312 79.59375 L 272.761719 78.550781 C 273.207031 78.03125 273.582031 77.734375 274.101562 77.660156 C 274.546875 77.585938 274.992188 77.808594 275.441406 78.253906 C 275.738281 78.550781 276.035156 78.847656 276.257812 79.148438 L 276.40625 79.222656 C 278.789062 80.039062 280.347656 82.496094 280.273438 85.46875 C 280.273438 90.527344 277.820312 94.472656 274.917969 98.710938 C 274.101562 99.976562 273.207031 101.242188 272.390625 102.507812 L 271.71875 103.546875 C 271.125 104.441406 271.050781 105.257812 271.496094 106.671875 C 272.019531 108.382812 272.464844 110.167969 272.910156 111.878906 C 273.207031 113.144531 273.582031 114.484375 273.953125 115.75 C 274.324219 117.085938 274.695312 118.277344 275.441406 119.246094 C 278.117188 123.039062 279.53125 127.128906 279.605469 131.59375 L 279.605469 131.667969 C 279.605469 133.007812 279.679688 134.421875 279.753906 135.835938 C 280.125 140.445312 279.605469 145.207031 278.265625 150.414062 C 275.886719 159.417969 271.644531 168.121094 265.101562 177.046875 C 264.132812 178.386719 263.09375 179.875 262.199219 181.585938 C 261.902344 182.183594 261.753906 183.148438 261.976562 183.742188 C 263.019531 185.976562 263.984375 187.613281 265.027344 189.027344 C 266.515625 191.035156 268.148438 192.96875 269.710938 194.902344 C 270.605469 196.019531 271.570312 197.136719 272.464844 198.25 C 278.710938 206.0625 282.507812 213.648438 284.070312 221.535156 C 284.738281 225.925781 284.070312 230.164062 281.984375 234.109375 Z M 262.273438 93.503906 C 263.539062 89.859375 265.84375 86.957031 268.074219 84.207031 C 268.894531 83.238281 269.710938 82.195312 270.457031 81.15625 C 270.457031 81.15625 270.457031 81.15625 270.382812 81.15625 L 270.085938 81.527344 C 269.117188 82.644531 268.222656 83.609375 266.886719 84.207031 C 266.664062 84.28125 266.4375 84.355469 266.140625 84.355469 C 265.917969 84.355469 265.695312 84.28125 265.472656 84.207031 C 264.28125 85.394531 263.167969 86.660156 262.125 87.925781 C 261.53125 88.59375 261.007812 89.191406 260.414062 89.859375 C 259.96875 90.304688 259.820312 90.753906 259.820312 91.125 C 259.894531 91.421875 260.117188 91.792969 260.636719 92.089844 C 261.15625 92.390625 261.605469 92.835938 262.050781 93.28125 C 262.125 93.355469 262.199219 93.429688 262.273438 93.503906 Z M 270.007812 103.472656 C 270.605469 102.507812 271.273438 101.539062 271.871094 100.574219 C 273.582031 97.96875 275.367188 95.289062 276.777344 92.539062 C 277.894531 90.378906 278.339844 87.703125 278.5625 85.394531 C 278.710938 84.207031 277.96875 82.792969 277.300781 81.824219 C 277.078125 81.527344 276.851562 81.304688 276.628906 81.082031 C 276.628906 81.15625 276.628906 81.230469 276.628906 81.304688 C 276.628906 81.675781 276.480469 82.046875 276.183594 82.273438 L 275.8125 82.570312 C 275.292969 83.015625 274.84375 83.386719 274.324219 83.683594 C 273.503906 84.207031 272.835938 84.429688 272.316406 84.429688 C 272.09375 84.429688 271.945312 84.429688 271.71875 84.355469 C 271.273438 84.207031 270.902344 83.757812 270.53125 83.164062 C 267.703125 86.363281 264.804688 89.933594 263.242188 94.324219 Z M 182.832031 201.894531 C 182.308594 200.855469 181.714844 199.738281 181.195312 198.695312 C 180.898438 198.101562 180.597656 197.507812 180.226562 196.984375 C 180.078125 196.761719 179.929688 196.464844 179.78125 196.242188 L 179.113281 196.539062 C 180.824219 200.855469 182.832031 204.945312 184.617188 208.441406 C 186.476562 212.011719 188.261719 216.402344 187.890625 221.3125 L 187.816406 222.800781 C 187.664062 224.957031 187.515625 227.265625 187.21875 229.496094 C 186.996094 231.578125 186.699219 233.738281 186.402344 235.820312 C 186.253906 236.710938 186.179688 237.679688 186.03125 238.570312 L 185.953125 238.945312 L 186.476562 239.019531 L 186.625 238.945312 C 186.625 238.945312 186.699219 238.871094 186.699219 238.722656 C 186.699219 238.644531 186.699219 238.496094 186.773438 238.421875 C 187.367188 235.820312 188.929688 224.660156 189.226562 221.757812 C 189.601562 218.113281 189.003906 214.691406 187.515625 211.566406 C 186.03125 208.21875 184.394531 205.019531 182.832031 201.894531 Z M 182.832031 201.894531 " fill-opacity="1" fill-rule="nonzero"/></g></svg>