<svg xmlns="http://www.w3.org/2000/svg" width="500" viewBox="0 0 375 375" height="500" version="1.0"><defs><clipPath id="a"><path d="M80.45 17H184v249H80.45zm0 0"/></clipPath><clipPath id="b"><path d="M195.805 102h102.808v248.309H195.805zm0 0"/></clipPath></defs><path fill="#fff" d="M-37.5-37.5h450v450h-450z"/><path fill="#fff" d="M-37.5-37.5h450v450h-450z"/><path fill="#1a6ab1" d="M-37.5-37.5h450v450h-450z"/><g clip-path="url(#a)"><path fill="#fff" d="M175.184 59.266c-.07-.2-.125-.395-.2-.578l.524.144zm-2.399 49.316c-.34-.18-.664-.309-1.008-.469-.379-.18-.738-.379-1.136-.523-.395-.18-.828-.29-1.243-.434-.359-.125-.703-.25-1.062-.36a14.662 14.662 0 0 0-1.496-.288c-.29-.055-.578-.145-.867-.18a17.904 17.904 0 0 0-2.414-.164c-17.485 0-31.164 25.11-31.164 57.14 0 32.048 13.68 57.137 31.164 57.137.504 0 1.007-.02 1.511-.054-.285 10.218-3.261 35.183-25.554 35.183-18.368 0-33.293-16.601-33.293-36.984 0-6.508-2.45-20.098-5.551-37.313-4.379-24.296-9.84-54.543-9.84-73.863 0-.812 0-1.62.016-2.433.144.035.308.035.453.054.883.145 1.836.25 2.773.34.578.074 1.117.145 1.715.2 1.078.074 2.215.109 3.352.124.504.02.992.055 1.496.055.09 0 .18.02.25.02 1.48 0 2.992-.075 4.543-.145.379-.02.777-.055 1.172-.09 1.28-.09 2.597-.2 3.93-.344.488-.054.972-.105 1.46-.18 1.551-.179 3.117-.413 4.703-.683.18-.035.36-.055.54-.09 1.769-.308 3.55-.668 5.355-1.066.484-.106.992-.23 1.496-.36a88.28 88.28 0 0 0 4.125-1.027c.543-.144 1.066-.289 1.605-.433a133.02 133.02 0 0 0 5.536-1.692 160.739 160.739 0 0 0 4.632-1.64c.395-.145.793-.29 1.168-.434 1.48-.578 2.957-1.152 4.383-1.75.035-.016.07-.035.09-.035 1.46-.63 2.883-1.278 4.27-1.926.363-.164.703-.328 1.066-.508a98.9 98.9 0 0 0 4.02-2.015s.015-.02.035-.02a99.408 99.408 0 0 0 3.84-2.164c.304-.18.593-.36.898-.523a112.455 112.455 0 0 0 3.57-2.25 85.223 85.223 0 0 0 3.317-2.364c.25-.18.484-.36.718-.539a69.355 69.355 0 0 0 3.012-2.398c1.606 8.472 2.414 17.285 2.414 26.316v1.172zm-.648 12.652c-.938 9.95-2.828 19.32-5.66 27.903-5.91 17.863-6.649 37.777-2.27 60.867v.02c-.215.019-.434.035-.648.035-9.825 0-20.782-19.196-20.782-46.754 0-27.543 10.957-46.739 20.782-46.739a9.5 9.5 0 0 1 1.406.125l.45.11c.308.07.612.16.901.27.18.054.34.124.504.179.27.129.54.254.813.398.16.07.304.145.449.235.305.16.578.34.863.539.11.074.22.144.344.234.379.27.738.559 1.102.867.07.051.125.125.195.18.289.25.559.524.832.774.105.125.234.234.324.359.145.129.27.254.395.379v.02zm-80.73-26.71c.632-7.141 1.804-14.153 3.495-20.891v-.04c.254-.16.508-.34.778-.503.449-.324.918-.649 1.406-.973.539-.344 1.098-.703 1.64-1.047.485-.304.954-.593 1.442-.882.594-.36 1.227-.72 1.836-1.063.488-.29.976-.559 1.46-.828.65-.36 1.317-.703 1.985-1.047.504-.25 1.008-.523 1.512-.773.687-.344 1.406-.668 2.11-.993.503-.254 1.027-.488 1.55-.738.738-.324 1.496-.648 2.234-.957a52.84 52.84 0 0 1 1.551-.664 96.78 96.78 0 0 1 2.524-.992c.468-.18.918-.36 1.37-.524 1.317-.488 2.65-.957 4-1.406 1.75-.578 3.497-1.098 5.227-1.586.2-.054.399-.125.578-.18 1.641-.449 3.243-.847 4.848-1.226.305-.055.594-.125.883-.2 1.55-.34 3.062-.648 4.578-.917.324-.055.668-.125.992-.18a95.685 95.685 0 0 1 4.38-.648l.937-.11c1.441-.16 2.867-.289 4.254-.379.253-.015.488-.035.738-.054a84.539 84.539 0 0 1 4.164-.106c.144 0 .27.016.414.016 2.883.035 5.55.27 7.93.722a.73.73 0 0 1 .183.016c1.98 4.309 3.711 8.977 5.172 13.973a51.66 51.66 0 0 1-.793.863c-.144.145-.27.29-.414.434-.379.379-.793.773-1.207 1.171-.11.106-.219.215-.344.325a46.934 46.934 0 0 1-3.55 2.972c-.235.18-.47.344-.704.524-.414.324-.847.629-1.28.937-.29.215-.614.414-.919.63-.398.273-.773.542-1.172.792-.36.235-.722.469-1.082.688-.379.234-.758.484-1.133.718l-1.19.704c-.38.218-.759.453-1.153.668-.414.234-.832.468-1.262.703-.398.215-.777.433-1.191.648-.434.234-.864.469-1.317.684-.414.218-.808.418-1.222.632-.454.215-.922.45-1.372.668-.433.196-.867.415-1.296.61-.47.2-.922.418-1.391.633-.45.199-.938.414-1.406.613-.45.2-.899.379-1.352.578-.52.215-1.062.43-1.586.648-.414.16-.828.325-1.242.485-.668.27-1.371.523-2.035.777-.29.09-.578.196-.867.305-.993.36-2 .703-3.008 1.047a120.44 120.44 0 0 1-5.3 1.601l-.74.22c-1.66.448-3.3.862-4.921 1.241-.344.075-.684.145-1.027.219-1.567.36-3.118.664-4.649.934-.363.054-.723.109-1.082.183a150.8 150.8 0 0 1-4.398.63c-.309.034-.614.054-.918.089a66.604 66.604 0 0 1-3.75.324c-.36.02-.739.055-1.102.074-1.297.055-2.558.07-3.8.07-.38 0-.758 0-1.137-.015a59.162 59.162 0 0 1-3.532-.2c-.289-.034-.558-.073-.832-.109-1.187-.124-2.34-.289-3.406-.523-.035 0-.07 0-.09-.016zm40.41-66.278c8.671 0 17.25 5.73 24.351 16.043a65.265 65.265 0 0 0-4.2-.02 84.91 84.91 0 0 0-1.945.09 61.38 61.38 0 0 0-3.171.18c-.903.074-1.825.164-2.743.27-.953.093-1.93.218-2.918.363-.867.105-1.73.215-2.613.36-1.73.269-3.48.613-5.246.972-.723.144-1.441.324-2.164.488a133.38 133.38 0 0 0-4.11 1.008c-.667.164-1.316.344-1.964.523-2.02.559-4.035 1.153-6.055 1.82-1.621.54-3.207 1.102-4.797 1.696-.504.18-.972.379-1.476.574-1.063.418-2.145.832-3.192 1.282-.594.234-1.168.503-1.765.757-.918.414-1.836.813-2.739 1.227-.613.285-1.226.574-1.84.883-.847.414-1.69.828-2.523 1.261-.27.145-.559.27-.828.414 7.77-18.71 19.594-30.19 31.937-30.19zm47.117 43.422.015-.055-.629-2.414-2.777-10.347.234.054-5.117-10.347c-.035-.055-.055-.106-.09-.16l-.957-1.93-.054-.02c-9.625-18.183-23.286-28.586-37.743-28.586-19.843 0-37.328 18.946-45.976 49.532l-.055.035-.453 1.73-3.89 14.582.937-.719a148.244 148.244 0 0 0-1.067 8.04l-.18-.055-.394 7.027-.234 3.824.055.016c-.055 1.84-.11 3.68-.11 5.535 0 20.258 5.551 51.008 10.004 75.703 2.883 16.04 5.387 29.883 5.387 35.473 0 26.117 19.594 47.367 43.676 47.367 22.187 0 35.957-18.152 35.957-47.367 0-.649-.02-1.3-.055-1.95l.144-.07-.398-3.57c0-.016 0-.035-.016-.055l-.793-7.425-.343.164c-3.532-20.278-2.813-37.762 2.324-53.301 2.055-6.254 3.625-12.922 4.758-19.844l.523.668 1.063-13.266.144-2.019-.035-.055c.234-3.515.379-7.011.379-10.453 0-12.367-1.441-24.37-4.234-35.742"/></g><g clip-path="url(#b)"><path fill="#fff" d="M278.39 265.61c-3.12 17.214-5.55 30.804-5.55 37.327 0 20.387-14.945 36.97-33.293 36.97-22.297 0-25.29-24.962-25.559-35.184.469.035.957.054 1.442.074h.09c1.59 0 3.175-.219 4.707-.633.015-.016.054-.016.09-.035.378-.09.757-.215 1.117-.344.18-.055.359-.105.523-.18.234-.09.45-.18.684-.27l.972-.433c.055-.035.13-.07.219-.105 12.758-6.258 22.043-26.66 22.781-51.895 0-.07 0-.125.02-.199.015-1.008.035-2.016.035-3.047 0-32.047-13.7-57.136-31.164-57.136-.813 0-1.621.054-2.414.164-.29.035-.578.105-.867.16-.504.09-1.008.18-1.496.308-.36.09-.704.235-1.063.34-.414.145-.848.274-1.262.434-.379.164-.738.36-1.136.543-.325.16-.668.285-.993.469v-1.192c0-9.031.813-17.844 2.418-26.316 0 0 0 .02.016.02.938.792 1.95 1.6 2.977 2.378.234.18.484.379.738.559a68.245 68.245 0 0 0 3.316 2.343c1.137.774 2.344 1.512 3.586 2.254.27.18.559.34.848.52a113.402 113.402 0 0 0 7.984 4.238c.324.145.633.305.938.45a123.569 123.569 0 0 0 8.902 3.765c.324.129.649.254.977.379 1.547.578 3.117 1.137 4.738 1.68 1.84.609 3.695 1.152 5.535 1.675.54.145 1.063.286 1.586.43 1.387.379 2.773.723 4.145 1.047.503.125.992.234 1.496.344 1.8.414 3.586.773 5.336 1.082.214.035.414.05.613.09 1.566.27 3.098.484 4.629.683.508.055 1.012.11 1.515.16 1.297.145 2.579.254 3.84.344.434.035.848.074 1.278.09 1.515.09 3.011.144 4.472.144.07 0 .145-.015.215-.015.649 0 1.242-.04 1.856-.055 1.027-.039 2.039-.055 3.011-.129.649-.05 1.242-.125 1.856-.195.902-.11 1.804-.2 2.668-.344.144-.02.289-.02.433-.035.016.793.016 1.602.016 2.414 0 19.34-5.441 49.586-9.82 73.863zm-71.464-60.02v-.02c.125-.125.25-.27.375-.394.11-.11.219-.235.344-.344.253-.27.542-.523.812-.773.07-.075.145-.13.215-.2a13.28 13.28 0 0 1 1.101-.867c.106-.07.235-.144.34-.215.27-.199.559-.379.848-.539.144-.093.309-.183.45-.254a7.25 7.25 0 0 1 .831-.379c.16-.07.324-.125.485-.199.308-.105.597-.18.921-.25.145-.039.286-.09.45-.11a7.15 7.15 0 0 1 1.406-.144c9.824 0 20.762 19.196 20.762 46.754 0 1.715-.036 3.41-.125 5.067-1.118 22.945-9.77 39.093-18.493 41.347-.164.035-.304.09-.449.13-.379.07-.758.105-1.137.14-.289.02-.578.039-.867.02-.105 0-.234.019-.34.019v-.074c4.36-23.07 3.622-42.989-2.273-60.832-2.828-8.578-4.738-17.953-5.656-27.883zm-3.047-61.988-.324-.43.504-.145c-.055.18-.11.395-.18.575zm7.605 10.078c1.461-4.977 3.192-9.664 5.172-13.97.055 0 .11-.019.164-.019a39.132 39.132 0 0 1 3.801-.523h.055a49.622 49.622 0 0 1 4.054-.2h.454c1.332-.015 2.738.04 4.164.11.234.02.468.02.718.035 1.407.09 2.832.235 4.29.399.289.035.578.054.867.09 1.476.18 2.972.414 4.488.668.289.054.574.105.863.16 1.531.27 3.102.593 4.688.937.25.055.504.125.758.18 1.62.379 3.277.793 4.957 1.262.16.039.324.09.484.129 1.75.503 3.516 1.027 5.281 1.62 1.352.434 2.688.919 4.02 1.407.398.144.793.305 1.207.45.902.358 1.804.702 2.703 1.062.488.199.973.418 1.441.613.793.344 1.57.668 2.328 1.012.54.234 1.043.484 1.586.738.684.324 1.368.648 2.055.992l1.621.809c.613.324 1.242.648 1.84.972.539.309 1.082.614 1.621.922a28.23 28.23 0 0 1 1.656.973c.543.304 1.067.629 1.586.953l1.516.976c.504.34 1.008.684 1.496 1.028.234.16.488.324.723.484.015 0 .015.02.015.035a133.787 133.787 0 0 1 3.496 20.891h-.07c-1.102.234-2.27.418-3.496.543-.234.035-.469.07-.703.09-1.172.11-2.399.18-3.676.215-.328 0-.633 0-.937.02-1.301 0-2.633-.02-4.004-.09-.27-.02-.559-.036-.848-.055-1.332-.07-2.684-.2-4.09-.344-.18-.016-.379-.035-.578-.055-1.496-.18-3.043-.414-4.613-.664-.344-.055-.649-.11-.992-.164-1.551-.27-3.098-.594-4.684-.937-.344-.07-.703-.16-1.047-.235a140.79 140.79 0 0 1-4.867-1.222c-.29-.075-.574-.165-.848-.235a153.679 153.679 0 0 1-5.097-1.55c-.055-.02-.094-.04-.13-.04-1.027-.34-2.019-.683-3.027-1.043-.27-.109-.558-.218-.828-.324-.703-.254-1.39-.504-2.074-.758-.395-.164-.809-.343-1.227-.504-.539-.218-1.062-.414-1.586-.648a28.7 28.7 0 0 1-1.367-.578c-.468-.2-.937-.395-1.39-.613-.47-.2-.938-.414-1.407-.63-.43-.199-.863-.398-1.277-.613a37.121 37.121 0 0 1-1.371-.668c-.414-.199-.828-.414-1.227-.613-.449-.234-.898-.469-1.351-.703-.38-.215-.774-.414-1.153-.629a29.22 29.22 0 0 1-1.28-.723c-.395-.214-.755-.433-1.134-.648-.414-.234-.812-.488-1.191-.723-.394-.234-.758-.468-1.133-.703-.379-.23-.742-.465-1.101-.699-.38-.254-.758-.508-1.137-.758-.305-.234-.649-.453-.953-.668-.434-.304-.828-.613-1.246-.918-.25-.18-.485-.343-.719-.523a57.225 57.225 0 0 1-3.55-2.973 5.84 5.84 0 0 0-.36-.344 37.829 37.829 0 0 1-1.192-1.171 8.483 8.483 0 0 1-.414-.434c-.27-.29-.539-.559-.793-.848v-.015zm35.758-41.078c12.348 0 24.172 11.48 31.942 30.171a24.96 24.96 0 0 1-.922-.449c-.774-.398-1.567-.793-2.38-1.191-.628-.305-1.26-.613-1.925-.918a73.977 73.977 0 0 0-2.668-1.192c-.613-.27-1.207-.539-1.82-.793-1.047-.43-2.094-.847-3.156-1.261-.504-.18-.993-.395-1.497-.574a104.594 104.594 0 0 0-4.812-1.696c-2.035-.683-4.074-1.281-6.09-1.855-.488-.13-.976-.274-1.46-.399-2.02-.539-4.04-1.047-6.02-1.46-.02 0-.036-.016-.055-.016a148.428 148.428 0 0 0-5.805-1.082c-.469-.075-.953-.145-1.422-.219-1.91-.285-3.785-.54-5.625-.7-.09 0-.16-.019-.234-.019a85.486 85.486 0 0 0-5.156-.308c-.469-.016-.899-.016-1.352-.036-.394 0-.808-.035-1.207-.035-.902 0-1.8.02-2.683.055 7.082-10.293 15.66-16.023 24.347-16.023zm51.242 73.628.055-.035-.215-3.804v-.016l-.398-7.031-.18.054a147.06 147.06 0 0 0-1.082-8.02l.957.72-3.894-14.582-.47-1.73-.05-.036c-8.637-30.586-26.137-49.531-45.965-49.531-14.453 0-28.117 10.383-37.742 28.57l-.07.016-1.028 2.11-5.136 10.327.25-.07-2.774 10.379-.648 2.418.035.054c-2.813 11.356-4.254 23.36-4.254 35.723 0 3.441.145 6.957.379 10.473l-.035.035.16 2.02 1.047 13.285.539-.688c1.137 6.941 2.687 13.61 4.758 19.863 5.12 15.52 5.859 33.024 2.308 53.317l-.344-.18-.792 7.41v.07l-.415 3.57.165.071c-.036.649-.075 1.297-.075 1.945 0 29.22 13.79 47.372 35.977 47.372 24.082 0 43.672-21.25 43.672-47.372 0-5.585 2.488-19.445 5.39-35.468 4.454-24.715 10.004-55.446 10.004-75.723 0-1.855-.054-3.695-.129-5.516"/></g></svg>