<svg xmlns="http://www.w3.org/2000/svg" xmlns:xlink="http://www.w3.org/1999/xlink" width="500" zoomAndPan="magnify" viewBox="0 0 375 374.999991" height="500" preserveAspectRatio="xMidYMid meet" version="1.0"><defs><clipPath id="cb373cde86"><path d="M 80.449219 17 L 184 17 L 184 266 L 80.449219 266 Z M 80.449219 17 " clip-rule="nonzero"/></clipPath><clipPath id="1470a44e06"><path d="M 195.804688 102 L 298.613281 102 L 298.613281 350.308594 L 195.804688 350.308594 Z M 195.804688 102 " clip-rule="nonzero"/></clipPath></defs><rect x="-37.5" width="450" fill="#ffffff" y="-37.499999" height="449.999989" fill-opacity="1"/><rect x="-37.5" width="450" fill="#ffffff" y="-37.499999" height="449.999989" fill-opacity="1"/><rect x="-37.5" width="450" fill="#1a6ab1" y="-37.499999" height="449.999989" fill-opacity="1"/><g clip-path="url(#cb373cde86)"><path fill="#ffffff" d="M 175.183594 59.265625 C 175.113281 59.066406 175.058594 58.871094 174.984375 58.6875 L 175.507812 58.832031 Z M 172.785156 108.582031 C 172.445312 108.402344 172.121094 108.273438 171.777344 108.113281 C 171.398438 107.933594 171.039062 107.734375 170.640625 107.589844 C 170.246094 107.410156 169.8125 107.300781 169.398438 107.15625 C 169.039062 107.03125 168.695312 106.90625 168.335938 106.796875 C 167.847656 106.671875 167.34375 106.582031 166.839844 106.507812 C 166.550781 106.453125 166.261719 106.363281 165.972656 106.328125 C 165.164062 106.21875 164.367188 106.164062 163.558594 106.164062 C 146.074219 106.164062 132.394531 131.273438 132.394531 163.304688 C 132.394531 195.351562 146.074219 220.441406 163.558594 220.441406 C 164.0625 220.441406 164.566406 220.421875 165.070312 220.386719 C 164.785156 230.605469 161.808594 255.570312 139.515625 255.570312 C 121.148438 255.570312 106.222656 238.96875 106.222656 218.585938 C 106.222656 212.078125 103.773438 198.488281 100.671875 181.273438 C 96.292969 156.976562 90.832031 126.730469 90.832031 107.410156 C 90.832031 106.597656 90.832031 105.789062 90.847656 104.976562 C 90.992188 105.011719 91.15625 105.011719 91.300781 105.03125 C 92.183594 105.175781 93.136719 105.28125 94.074219 105.371094 C 94.652344 105.445312 95.191406 105.515625 95.789062 105.570312 C 96.867188 105.644531 98.003906 105.679688 99.140625 105.695312 C 99.644531 105.714844 100.132812 105.75 100.636719 105.75 C 100.726562 105.75 100.816406 105.769531 100.886719 105.769531 C 102.367188 105.769531 103.878906 105.695312 105.429688 105.625 C 105.808594 105.605469 106.207031 105.570312 106.601562 105.535156 C 107.882812 105.445312 109.199219 105.335938 110.53125 105.191406 C 111.019531 105.136719 111.503906 105.085938 111.992188 105.011719 C 113.542969 104.832031 115.109375 104.597656 116.695312 104.328125 C 116.875 104.292969 117.054688 104.273438 117.234375 104.238281 C 119.003906 103.929688 120.785156 103.570312 122.589844 103.171875 C 123.074219 103.066406 123.582031 102.941406 124.085938 102.8125 C 125.457031 102.507812 126.824219 102.164062 128.210938 101.785156 C 128.753906 101.640625 129.277344 101.496094 129.816406 101.351562 C 131.65625 100.832031 133.492188 100.273438 135.351562 99.660156 C 136.917969 99.136719 138.46875 98.578125 139.984375 98.019531 C 140.378906 97.875 140.777344 97.730469 141.152344 97.585938 C 142.632812 97.007812 144.109375 96.433594 145.535156 95.835938 C 145.570312 95.820312 145.605469 95.800781 145.625 95.800781 C 147.085938 95.171875 148.507812 94.523438 149.894531 93.875 C 150.257812 93.710938 150.597656 93.546875 150.960938 93.367188 C 152.328125 92.71875 153.664062 92.050781 154.980469 91.351562 C 154.980469 91.351562 154.996094 91.332031 155.015625 91.332031 C 156.332031 90.628906 157.609375 89.90625 158.855469 89.167969 C 159.160156 88.988281 159.449219 88.808594 159.753906 88.644531 C 160.980469 87.90625 162.171875 87.148438 163.324219 86.394531 C 164.476562 85.617188 165.578125 84.824219 166.640625 84.03125 C 166.890625 83.851562 167.125 83.671875 167.359375 83.492188 C 168.40625 82.699219 169.414062 81.90625 170.371094 81.09375 C 171.976562 89.566406 172.785156 98.378906 172.785156 107.410156 C 172.785156 107.789062 172.785156 108.203125 172.785156 108.582031 Z M 172.136719 121.234375 C 171.199219 131.183594 169.308594 140.554688 166.476562 149.136719 C 160.566406 167 159.828125 186.914062 164.207031 210.003906 C 164.207031 210.003906 164.207031 210.023438 164.207031 210.023438 C 163.992188 210.042969 163.773438 210.058594 163.558594 210.058594 C 153.734375 210.058594 142.777344 190.863281 142.777344 163.304688 C 142.777344 135.761719 153.734375 116.566406 163.558594 116.566406 C 164.027344 116.566406 164.496094 116.621094 164.964844 116.691406 C 165.109375 116.726562 165.269531 116.765625 165.414062 116.800781 C 165.722656 116.871094 166.027344 116.960938 166.316406 117.070312 C 166.496094 117.125 166.65625 117.195312 166.820312 117.25 C 167.089844 117.378906 167.359375 117.503906 167.632812 117.648438 C 167.792969 117.71875 167.9375 117.792969 168.082031 117.882812 C 168.386719 118.042969 168.660156 118.222656 168.945312 118.421875 C 169.054688 118.496094 169.164062 118.566406 169.289062 118.65625 C 169.667969 118.925781 170.027344 119.214844 170.390625 119.523438 C 170.460938 119.574219 170.515625 119.648438 170.585938 119.703125 C 170.875 119.953125 171.144531 120.226562 171.417969 120.476562 C 171.523438 120.601562 171.652344 120.710938 171.742188 120.835938 C 171.886719 120.964844 172.011719 121.089844 172.136719 121.214844 C 172.136719 121.234375 172.136719 121.234375 172.136719 121.234375 Z M 91.40625 94.523438 C 92.039062 87.382812 93.210938 80.371094 94.902344 73.632812 C 94.902344 73.632812 94.902344 73.613281 94.902344 73.59375 C 95.15625 73.433594 95.410156 73.253906 95.679688 73.089844 C 96.128906 72.765625 96.597656 72.441406 97.085938 72.117188 C 97.625 71.773438 98.183594 71.414062 98.726562 71.070312 C 99.210938 70.765625 99.679688 70.476562 100.167969 70.1875 C 100.761719 69.828125 101.394531 69.46875 102.003906 69.125 C 102.492188 68.835938 102.980469 68.566406 103.464844 68.296875 C 104.113281 67.9375 104.78125 67.59375 105.449219 67.25 C 105.953125 67 106.457031 66.726562 106.960938 66.476562 C 107.648438 66.132812 108.367188 65.808594 109.070312 65.484375 C 109.574219 65.230469 110.097656 64.996094 110.621094 64.746094 C 111.359375 64.421875 112.117188 64.097656 112.855469 63.789062 C 113.378906 63.554688 113.882812 63.339844 114.40625 63.125 C 115.234375 62.78125 116.082031 62.457031 116.929688 62.132812 C 117.398438 61.953125 117.847656 61.773438 118.300781 61.609375 C 119.617188 61.121094 120.949219 60.652344 122.300781 60.203125 C 124.050781 59.625 125.796875 59.105469 127.527344 58.617188 C 127.726562 58.5625 127.925781 58.492188 128.105469 58.4375 C 129.746094 57.988281 131.347656 57.589844 132.953125 57.210938 C 133.257812 57.15625 133.546875 57.085938 133.835938 57.011719 C 135.386719 56.671875 136.898438 56.363281 138.414062 56.09375 C 138.738281 56.039062 139.082031 55.96875 139.40625 55.914062 C 140.882812 55.660156 142.34375 55.445312 143.785156 55.265625 C 144.09375 55.230469 144.417969 55.191406 144.722656 55.15625 C 146.164062 54.996094 147.589844 54.867188 148.976562 54.777344 C 149.230469 54.761719 149.464844 54.742188 149.714844 54.722656 C 151.140625 54.652344 152.527344 54.617188 153.878906 54.617188 C 154.023438 54.617188 154.148438 54.632812 154.292969 54.632812 C 157.175781 54.667969 159.84375 54.902344 162.222656 55.355469 C 162.277344 55.355469 162.351562 55.355469 162.40625 55.371094 C 164.386719 59.679688 166.117188 64.347656 167.578125 69.34375 C 167.324219 69.628906 167.054688 69.917969 166.785156 70.207031 C 166.640625 70.351562 166.515625 70.496094 166.371094 70.640625 C 165.992188 71.019531 165.578125 71.414062 165.164062 71.8125 C 165.054688 71.917969 164.945312 72.027344 164.820312 72.136719 C 163.738281 73.144531 162.546875 74.136719 161.269531 75.109375 C 161.035156 75.289062 160.800781 75.453125 160.566406 75.632812 C 160.152344 75.957031 159.71875 76.261719 159.285156 76.570312 C 158.996094 76.785156 158.671875 76.984375 158.367188 77.199219 C 157.96875 77.472656 157.59375 77.742188 157.195312 77.992188 C 156.835938 78.226562 156.472656 78.460938 156.113281 78.679688 C 155.734375 78.914062 155.355469 79.164062 154.980469 79.398438 C 154.582031 79.632812 154.183594 79.867188 153.789062 80.101562 C 153.410156 80.320312 153.03125 80.554688 152.636719 80.769531 C 152.222656 81.003906 151.804688 81.238281 151.375 81.472656 C 150.976562 81.6875 150.597656 81.90625 150.183594 82.121094 C 149.75 82.355469 149.320312 82.589844 148.867188 82.804688 C 148.453125 83.023438 148.058594 83.222656 147.644531 83.4375 C 147.191406 83.652344 146.722656 83.886719 146.273438 84.105469 C 145.839844 84.300781 145.40625 84.519531 144.976562 84.714844 C 144.507812 84.914062 144.054688 85.132812 143.585938 85.347656 C 143.136719 85.546875 142.648438 85.761719 142.179688 85.960938 C 141.730469 86.160156 141.28125 86.339844 140.828125 86.539062 C 140.308594 86.753906 139.765625 86.96875 139.242188 87.1875 C 138.828125 87.347656 138.414062 87.511719 138 87.671875 C 137.332031 87.941406 136.628906 88.195312 135.964844 88.449219 C 135.675781 88.539062 135.386719 88.644531 135.097656 88.753906 C 134.105469 89.113281 133.097656 89.457031 132.089844 89.800781 C 130.320312 90.375 128.554688 90.917969 126.789062 91.402344 C 126.535156 91.476562 126.300781 91.546875 126.050781 91.621094 C 124.390625 92.070312 122.75 92.484375 121.128906 92.863281 C 120.785156 92.9375 120.445312 93.007812 120.101562 93.082031 C 118.535156 93.441406 116.984375 93.746094 115.453125 94.015625 C 115.089844 94.070312 114.730469 94.125 114.371094 94.199219 C 112.875 94.433594 111.394531 94.648438 109.972656 94.828125 C 109.664062 94.863281 109.359375 94.882812 109.054688 94.917969 C 107.792969 95.0625 106.53125 95.171875 105.304688 95.242188 C 104.945312 95.261719 104.566406 95.296875 104.203125 95.316406 C 102.90625 95.371094 101.644531 95.386719 100.402344 95.386719 C 100.023438 95.386719 99.644531 95.386719 99.265625 95.371094 C 98.058594 95.332031 96.867188 95.277344 95.734375 95.171875 C 95.445312 95.136719 95.175781 95.097656 94.902344 95.0625 C 93.714844 94.9375 92.5625 94.773438 91.496094 94.539062 C 91.460938 94.539062 91.425781 94.539062 91.40625 94.523438 Z M 131.816406 28.246094 C 140.488281 28.246094 149.066406 33.976562 156.167969 44.289062 C 154.796875 44.234375 153.390625 44.234375 151.96875 44.269531 C 151.335938 44.289062 150.671875 44.324219 150.023438 44.359375 C 148.957031 44.394531 147.914062 44.449219 146.851562 44.539062 C 145.949219 44.613281 145.027344 44.703125 144.109375 44.808594 C 143.15625 44.902344 142.179688 45.027344 141.191406 45.171875 C 140.324219 45.277344 139.460938 45.386719 138.578125 45.53125 C 136.847656 45.800781 135.097656 46.144531 133.332031 46.503906 C 132.609375 46.648438 131.890625 46.828125 131.167969 46.992188 C 129.816406 47.296875 128.445312 47.640625 127.058594 48 C 126.390625 48.164062 125.742188 48.34375 125.09375 48.523438 C 123.074219 49.082031 121.058594 49.675781 119.039062 50.34375 C 117.417969 50.882812 115.832031 51.445312 114.242188 52.039062 C 113.738281 52.21875 113.269531 52.417969 112.765625 52.613281 C 111.703125 53.03125 110.621094 53.445312 109.574219 53.894531 C 108.980469 54.128906 108.40625 54.398438 107.808594 54.652344 C 106.890625 55.066406 105.972656 55.464844 105.070312 55.878906 C 104.457031 56.164062 103.84375 56.453125 103.230469 56.761719 C 102.382812 57.175781 101.539062 57.589844 100.707031 58.023438 C 100.4375 58.167969 100.148438 58.292969 99.878906 58.4375 C 107.648438 39.726562 119.472656 28.246094 131.816406 28.246094 Z M 178.933594 71.667969 L 178.949219 71.613281 L 178.320312 69.199219 L 175.542969 58.851562 L 175.777344 58.90625 L 170.660156 48.558594 C 170.625 48.503906 170.605469 48.453125 170.570312 48.398438 L 169.613281 46.46875 L 169.558594 46.449219 C 159.933594 28.265625 146.273438 17.863281 131.816406 17.863281 C 111.972656 17.863281 94.488281 36.808594 85.839844 67.394531 L 85.785156 67.429688 L 85.332031 69.160156 L 81.441406 83.742188 L 82.378906 83.023438 C 81.945312 85.691406 81.601562 88.359375 81.3125 91.0625 L 81.132812 91.007812 L 80.738281 98.035156 L 80.503906 101.859375 L 80.558594 101.875 C 80.503906 103.714844 80.449219 105.554688 80.449219 107.410156 C 80.449219 127.667969 86 158.417969 90.453125 183.113281 C 93.335938 199.152344 95.839844 212.996094 95.839844 218.585938 C 95.839844 244.703125 115.433594 265.953125 139.515625 265.953125 C 161.703125 265.953125 175.472656 247.800781 175.472656 218.585938 C 175.472656 217.9375 175.453125 217.285156 175.417969 216.636719 L 175.5625 216.566406 L 175.164062 212.996094 C 175.164062 212.980469 175.164062 212.960938 175.148438 212.941406 L 174.355469 205.515625 L 174.011719 205.679688 C 170.480469 185.402344 171.199219 167.917969 176.335938 152.378906 C 178.390625 146.125 179.960938 139.457031 181.09375 132.535156 L 181.617188 133.203125 L 182.679688 119.9375 L 182.824219 117.917969 L 182.789062 117.863281 C 183.023438 114.347656 183.167969 110.851562 183.167969 107.410156 C 183.167969 95.042969 181.726562 83.039062 178.933594 71.667969 " fill-opacity="1" fill-rule="nonzero"/></g><g clip-path="url(#1470a44e06)"><path fill="#ffffff" d="M 278.390625 265.609375 C 275.269531 282.824219 272.839844 296.414062 272.839844 302.9375 C 272.839844 323.324219 257.894531 339.90625 239.546875 339.90625 C 217.25 339.90625 214.257812 314.945312 213.988281 304.722656 C 214.457031 304.757812 214.945312 304.777344 215.429688 304.796875 C 215.449219 304.796875 215.46875 304.796875 215.503906 304.796875 C 215.503906 304.796875 215.503906 304.796875 215.519531 304.796875 C 217.109375 304.796875 218.695312 304.578125 220.226562 304.164062 C 220.242188 304.148438 220.28125 304.148438 220.316406 304.128906 C 220.695312 304.039062 221.074219 303.914062 221.433594 303.785156 C 221.613281 303.730469 221.792969 303.679688 221.957031 303.605469 C 222.191406 303.515625 222.40625 303.425781 222.640625 303.335938 C 222.964844 303.191406 223.289062 303.046875 223.613281 302.902344 C 223.667969 302.867188 223.742188 302.832031 223.832031 302.796875 C 236.589844 296.539062 245.875 276.136719 246.613281 250.902344 C 246.613281 250.832031 246.613281 250.777344 246.632812 250.703125 C 246.648438 249.695312 246.667969 248.6875 246.667969 247.65625 C 246.667969 215.609375 232.96875 190.519531 215.503906 190.519531 C 214.691406 190.519531 213.882812 190.574219 213.089844 190.683594 C 212.800781 190.71875 212.511719 190.789062 212.222656 190.84375 C 211.71875 190.933594 211.214844 191.023438 210.726562 191.152344 C 210.367188 191.242188 210.023438 191.386719 209.664062 191.492188 C 209.25 191.636719 208.816406 191.765625 208.402344 191.925781 C 208.023438 192.089844 207.664062 192.285156 207.265625 192.46875 C 206.941406 192.628906 206.597656 192.753906 206.273438 192.9375 C 206.273438 192.539062 206.273438 192.144531 206.273438 191.746094 C 206.273438 182.714844 207.085938 173.902344 208.691406 165.429688 C 208.691406 165.429688 208.691406 165.449219 208.707031 165.449219 C 209.644531 166.242188 210.65625 167.050781 211.683594 167.828125 C 211.917969 168.007812 212.167969 168.207031 212.421875 168.386719 C 213.484375 169.179688 214.585938 169.972656 215.738281 170.730469 C 216.875 171.503906 218.082031 172.242188 219.324219 172.984375 C 219.59375 173.164062 219.882812 173.324219 220.171875 173.503906 C 222.695312 174.984375 225.363281 176.390625 228.15625 177.742188 C 228.480469 177.886719 228.789062 178.046875 229.09375 178.191406 C 231.941406 179.527344 234.898438 180.789062 237.996094 181.957031 C 238.320312 182.085938 238.644531 182.210938 238.972656 182.335938 C 240.519531 182.914062 242.089844 183.472656 243.710938 184.015625 C 245.550781 184.625 247.40625 185.167969 249.246094 185.691406 C 249.785156 185.835938 250.308594 185.976562 250.832031 186.121094 C 252.21875 186.5 253.605469 186.84375 254.976562 187.167969 C 255.480469 187.292969 255.96875 187.402344 256.472656 187.511719 C 258.273438 187.925781 260.058594 188.285156 261.808594 188.59375 C 262.023438 188.628906 262.222656 188.644531 262.421875 188.683594 C 263.988281 188.953125 265.519531 189.167969 267.050781 189.367188 C 267.558594 189.421875 268.0625 189.476562 268.566406 189.527344 C 269.863281 189.671875 271.144531 189.78125 272.40625 189.871094 C 272.839844 189.90625 273.253906 189.945312 273.683594 189.960938 C 275.199219 190.050781 276.695312 190.105469 278.15625 190.105469 C 278.226562 190.105469 278.300781 190.089844 278.371094 190.089844 C 279.019531 190.089844 279.613281 190.050781 280.226562 190.035156 C 281.253906 189.996094 282.265625 189.980469 283.238281 189.90625 C 283.886719 189.855469 284.480469 189.78125 285.09375 189.710938 C 285.996094 189.601562 286.898438 189.511719 287.761719 189.367188 C 287.90625 189.347656 288.050781 189.347656 288.195312 189.332031 C 288.210938 190.125 288.210938 190.933594 288.210938 191.746094 C 288.210938 211.085938 282.769531 241.332031 278.390625 265.609375 Z M 206.925781 205.589844 C 206.925781 205.589844 206.925781 205.570312 206.925781 205.570312 C 207.050781 205.445312 207.175781 205.300781 207.300781 205.175781 C 207.410156 205.066406 207.519531 204.941406 207.644531 204.832031 C 207.898438 204.5625 208.1875 204.308594 208.457031 204.058594 C 208.527344 203.984375 208.601562 203.929688 208.671875 203.859375 C 209.015625 203.550781 209.394531 203.265625 209.773438 202.992188 C 209.878906 202.921875 210.007812 202.847656 210.113281 202.777344 C 210.382812 202.578125 210.671875 202.398438 210.960938 202.238281 C 211.105469 202.144531 211.269531 202.054688 211.410156 201.984375 C 211.683594 201.839844 211.953125 201.714844 212.242188 201.605469 C 212.402344 201.535156 212.566406 201.480469 212.726562 201.40625 C 213.035156 201.300781 213.324219 201.226562 213.648438 201.15625 C 213.792969 201.117188 213.933594 201.066406 214.097656 201.046875 C 214.546875 200.957031 215.015625 200.902344 215.503906 200.902344 C 225.328125 200.902344 236.265625 220.097656 236.265625 247.65625 C 236.265625 249.371094 236.230469 251.066406 236.140625 252.722656 C 235.023438 275.667969 226.371094 291.816406 217.648438 294.070312 C 217.484375 294.105469 217.34375 294.160156 217.199219 294.199219 C 216.820312 294.269531 216.441406 294.304688 216.0625 294.339844 C 215.773438 294.359375 215.484375 294.378906 215.195312 294.359375 C 215.089844 294.359375 214.960938 294.378906 214.855469 294.378906 C 214.855469 294.359375 214.855469 294.339844 214.855469 294.304688 C 219.214844 271.234375 218.476562 251.316406 212.582031 233.472656 C 209.753906 224.894531 207.84375 215.519531 206.925781 205.589844 Z M 203.878906 143.601562 L 203.554688 143.171875 L 204.058594 143.027344 C 204.003906 143.207031 203.949219 143.421875 203.878906 143.601562 Z M 211.484375 153.679688 C 212.945312 148.703125 214.675781 144.015625 216.65625 139.710938 C 216.710938 139.710938 216.765625 139.691406 216.820312 139.691406 C 218.027344 139.457031 219.289062 139.292969 220.621094 139.167969 C 220.640625 139.167969 220.660156 139.167969 220.675781 139.167969 C 221.972656 139.042969 223.324219 138.988281 224.730469 138.96875 C 224.875 138.96875 225.019531 138.96875 225.183594 138.96875 C 226.515625 138.953125 227.921875 139.007812 229.347656 139.078125 C 229.582031 139.097656 229.816406 139.097656 230.066406 139.113281 C 231.472656 139.203125 232.898438 139.347656 234.355469 139.511719 C 234.644531 139.546875 234.933594 139.566406 235.222656 139.601562 C 236.699219 139.78125 238.195312 140.015625 239.710938 140.269531 C 240 140.324219 240.285156 140.375 240.574219 140.429688 C 242.105469 140.699219 243.675781 141.023438 245.261719 141.367188 C 245.511719 141.421875 245.765625 141.492188 246.019531 141.546875 C 247.640625 141.925781 249.296875 142.339844 250.976562 142.808594 C 251.136719 142.847656 251.300781 142.898438 251.460938 142.9375 C 253.210938 143.441406 254.976562 143.964844 256.742188 144.558594 C 258.09375 144.992188 259.429688 145.476562 260.761719 145.964844 C 261.160156 146.109375 261.554688 146.269531 261.96875 146.414062 C 262.871094 146.773438 263.773438 147.117188 264.671875 147.476562 C 265.160156 147.675781 265.644531 147.894531 266.113281 148.089844 C 266.90625 148.433594 267.683594 148.757812 268.441406 149.101562 C 268.980469 149.335938 269.484375 149.585938 270.027344 149.839844 C 270.710938 150.164062 271.394531 150.488281 272.082031 150.832031 C 272.621094 151.101562 273.164062 151.371094 273.703125 151.640625 C 274.316406 151.964844 274.945312 152.289062 275.542969 152.613281 C 276.082031 152.921875 276.625 153.226562 277.164062 153.535156 C 277.722656 153.839844 278.28125 154.164062 278.820312 154.507812 C 279.363281 154.8125 279.886719 155.136719 280.40625 155.460938 C 280.914062 155.789062 281.417969 156.113281 281.921875 156.4375 C 282.425781 156.777344 282.929688 157.121094 283.417969 157.464844 C 283.652344 157.625 283.90625 157.789062 284.140625 157.949219 C 284.15625 157.949219 284.15625 157.96875 284.15625 157.984375 C 285.851562 164.726562 287.023438 171.722656 287.652344 178.875 C 287.636719 178.875 287.601562 178.875 287.582031 178.875 C 286.480469 179.109375 285.3125 179.292969 284.085938 179.417969 C 283.851562 179.453125 283.617188 179.488281 283.382812 179.507812 C 282.210938 179.617188 280.984375 179.6875 279.707031 179.722656 C 279.378906 179.722656 279.074219 179.722656 278.769531 179.742188 C 277.46875 179.742188 276.136719 179.722656 274.765625 179.652344 C 274.496094 179.632812 274.207031 179.617188 273.917969 179.597656 C 272.585938 179.527344 271.234375 179.398438 269.828125 179.253906 C 269.648438 179.238281 269.449219 179.21875 269.25 179.199219 C 267.753906 179.019531 266.207031 178.785156 264.636719 178.535156 C 264.292969 178.480469 263.988281 178.425781 263.644531 178.371094 C 262.09375 178.101562 260.546875 177.777344 258.960938 177.433594 C 258.617188 177.363281 258.257812 177.273438 257.914062 177.199219 C 256.308594 176.820312 254.6875 176.425781 253.046875 175.976562 C 252.757812 175.902344 252.472656 175.8125 252.199219 175.742188 C 250.507812 175.253906 248.8125 174.75 247.101562 174.191406 C 247.046875 174.171875 247.007812 174.152344 246.972656 174.152344 C 245.945312 173.8125 244.953125 173.46875 243.945312 173.109375 C 243.675781 173 243.386719 172.890625 243.117188 172.785156 C 242.414062 172.53125 241.726562 172.28125 241.042969 172.027344 C 240.648438 171.863281 240.234375 171.683594 239.816406 171.523438 C 239.277344 171.304688 238.753906 171.109375 238.230469 170.875 C 237.761719 170.695312 237.3125 170.496094 236.863281 170.296875 C 236.394531 170.097656 235.925781 169.902344 235.472656 169.683594 C 235.003906 169.484375 234.535156 169.269531 234.066406 169.054688 C 233.636719 168.855469 233.203125 168.65625 232.789062 168.441406 C 232.320312 168.222656 231.871094 168.007812 231.417969 167.773438 C 231.003906 167.574219 230.589844 167.359375 230.191406 167.160156 C 229.742188 166.925781 229.292969 166.691406 228.839844 166.457031 C 228.460938 166.242188 228.066406 166.042969 227.6875 165.828125 C 227.253906 165.59375 226.824219 165.359375 226.40625 165.105469 C 226.011719 164.890625 225.652344 164.671875 225.273438 164.457031 C 224.859375 164.222656 224.460938 163.96875 224.082031 163.734375 C 223.6875 163.5 223.324219 163.265625 222.949219 163.03125 C 222.570312 162.800781 222.207031 162.566406 221.847656 162.332031 C 221.46875 162.078125 221.089844 161.824219 220.710938 161.574219 C 220.40625 161.339844 220.0625 161.121094 219.757812 160.90625 C 219.324219 160.601562 218.929688 160.292969 218.511719 159.988281 C 218.261719 159.808594 218.027344 159.644531 217.792969 159.464844 C 216.511719 158.472656 215.324219 157.480469 214.242188 156.492188 C 214.117188 156.363281 214.007812 156.257812 213.882812 156.148438 C 213.464844 155.75 213.070312 155.371094 212.691406 154.976562 C 212.546875 154.832031 212.402344 154.6875 212.277344 154.542969 C 212.007812 154.253906 211.738281 153.984375 211.484375 153.695312 C 211.484375 153.695312 211.484375 153.695312 211.484375 153.679688 Z M 247.242188 112.601562 C 259.589844 112.601562 271.414062 124.082031 279.183594 142.773438 C 278.875 142.628906 278.570312 142.484375 278.261719 142.324219 C 277.488281 141.925781 276.695312 141.53125 275.882812 141.132812 C 275.253906 140.828125 274.621094 140.519531 273.957031 140.214844 C 273.074219 139.800781 272.1875 139.402344 271.289062 139.023438 C 270.675781 138.753906 270.082031 138.484375 269.46875 138.230469 C 268.421875 137.800781 267.375 137.382812 266.3125 136.96875 C 265.808594 136.789062 265.320312 136.574219 264.816406 136.394531 C 263.230469 135.796875 261.628906 135.222656 260.003906 134.699219 C 257.96875 134.015625 255.929688 133.417969 253.914062 132.84375 C 253.425781 132.714844 252.9375 132.570312 252.453125 132.445312 C 250.433594 131.90625 248.414062 131.398438 246.433594 130.984375 C 246.414062 130.984375 246.398438 130.96875 246.378906 130.96875 C 244.414062 130.554688 242.484375 130.210938 240.574219 129.886719 C 240.105469 129.8125 239.621094 129.742188 239.152344 129.667969 C 237.242188 129.382812 235.367188 129.128906 233.527344 128.96875 C 233.4375 128.96875 233.367188 128.949219 233.292969 128.949219 C 231.527344 128.785156 229.816406 128.695312 228.136719 128.640625 C 227.667969 128.625 227.238281 128.625 226.785156 128.605469 C 226.390625 128.605469 225.976562 128.570312 225.578125 128.570312 C 224.675781 128.570312 223.777344 128.589844 222.894531 128.625 C 229.976562 118.332031 238.554688 112.601562 247.242188 112.601562 Z M 298.484375 186.230469 L 298.539062 186.195312 L 298.324219 182.390625 C 298.324219 182.375 298.324219 182.375 298.324219 182.375 L 297.925781 175.34375 L 297.746094 175.398438 C 297.457031 172.710938 297.097656 170.027344 296.664062 167.378906 L 297.621094 168.097656 L 293.726562 153.515625 L 293.257812 151.785156 L 293.207031 151.75 C 284.570312 121.164062 267.070312 102.21875 247.242188 102.21875 C 232.789062 102.21875 219.125 112.601562 209.5 130.789062 L 209.429688 130.804688 L 208.402344 132.914062 L 203.265625 143.242188 L 203.515625 143.171875 L 200.742188 153.550781 L 200.09375 155.96875 L 200.128906 156.023438 C 197.316406 167.378906 195.875 179.382812 195.875 191.746094 C 195.875 195.1875 196.019531 198.703125 196.253906 202.21875 L 196.21875 202.253906 L 196.378906 204.273438 L 197.425781 217.558594 L 197.964844 216.871094 C 199.101562 223.8125 200.652344 230.480469 202.722656 236.734375 C 207.84375 252.253906 208.582031 269.757812 205.03125 290.050781 L 204.6875 289.871094 L 203.894531 297.28125 C 203.894531 297.296875 203.894531 297.332031 203.894531 297.351562 L 203.480469 300.921875 L 203.644531 300.992188 C 203.609375 301.640625 203.570312 302.289062 203.570312 302.9375 C 203.570312 332.15625 217.359375 350.308594 239.546875 350.308594 C 263.628906 350.308594 283.21875 329.058594 283.21875 302.9375 C 283.21875 297.351562 285.707031 283.492188 288.609375 267.46875 C 293.0625 242.753906 298.613281 212.023438 298.613281 191.746094 C 298.613281 189.890625 298.558594 188.050781 298.484375 186.230469 " fill-opacity="1" fill-rule="nonzero"/></g></svg>